<svg xmlns="http://www.w3.org/2000/svg" width="400" height="400"><g fill-rule="evenodd"><path fill="#979797" d="M352.2 108.3c-.3.2-.3.3.1.3h2.8l-.1 5.8c0 3.2 0 5.8.2 5.7.1-.1.3-2.8.3-6v-5.8l-1.4-.2c-.8 0-1.6 0-1.9.2m-13.6.2c4.4.1 4.4.1 4.4 1 0 1-.2 1-1.6 1h-1.6l.1 4.4.1 4.4.1-4.1.2-4.2 1.4-.1c1.3-.1 1.5-.3 1.6-1.4l.1-1.3h-4.6l-4.6.2h4.4m5.2 5c0 3.5.2 5.2.4 5 .3 0 .4-2 .2-5l-.2-4.8h1.5c1.2 0 1.6.2 1.8.8.3 1 .6.8.3-.3-.2-.8-.5-.9-2.1-.9h-2l.1 5.3m7.2-2.7-.6 2.3c0 .2.4-.6.8-1.7.4-1.2.7-2.2.6-2.3l-.8 1.7m-13.3 4.2v2.5a57 57 0 0 0 0-2.5m14.1-.7c-.7 2.4-.6 3.3.2 1.2l.5-1.5.3-.6c.2-.1.3-.5.3-.8 0-1.2-.6-.3-1.3 1.7m-5.6-.2c0 1 0 1.4.2 1 0-.3.3-.6.5-.4.5.3.4-.3-.2-1.4-.6-1-.6-1-.5.8m6.2 3.4c0 1.3 0 2.5.2 2.6.2 0 .3-.7.2-1.7-.2-3-.3-3.5-.4-1m-2.1 1.7c-.2.6-.4.9-.9.7-.3-.1-.6 0-.6.1 0 .2.2.4.5.4 1 0 1.6-.7 1.4-1.4-.1-.6-.2-.6-.4.2M72.7 209.4c0 .3-.5.4-1.2.2-.8-.1-1.1 0-1 .2.2.3 0 .4-1 .2s-1.2-.2-1 .2c.3.3.1.4-.5.2s-.8-.2-.6.1c.2.4 0 .5-1 .6-.4 0-.8.3-1.1.6-.5.5-.5.5-.3 0 .2-.3-.2 0-.7.7l-2.3 2.3-.8.7c.4-.1.3.2-.1 1.2-.4.7-.8 1.2-1 1.1-.2 0-.3.3-.1 1 .2.8.1.9-.2.4-.3-.4-.4.2-.4 2.5 0 1.9.1 3 .4 3 .2 0 .3.2.2.4-.3.4.2 1.6.5 1.4.2-.1.5 0 .6.4.1.4 0 .5-.3.3-.2-.1 0 .2.5.6.6.5.7.8.4.6-.3-.2-.2.1.3.6.5.6.9 1.1.9 1.3v.8c0 .3.1.3.4-.1.2-.4.2-.8-.1-1.2l.6.6c.6.6 1 1 .9.7-.2-.4 0-.4.3-.3.3.1.5.4.4.6-.2.4 1 .8 1.5.5.3-.2.3 0 0 .2-.1.4 0 .5.4.3.4-.1.7 0 .7.1 0 .2-.2.4-.5.4-.2 0-.3.1-.2.2.1.2.6 0 1-.2.8-.4.9-.4.7.4-.2.5-.1.8.1.8.3 0 .4-.2.3-.4-.2-.2 0-.4.4-.6.8-.3 1-.2.7.2-.2.3 0 .4.6.2s.8-.2.6.2c-.2.3 0 .4.5.2s.8 0 .8.2c0 .3.4.4.8.3.5-.2.8 0 .8.2s.4.3.8.2c.5-.2.7-.1.5.2-.1.2 0 .3.6.2.5-.2.8 0 .8.1 0 .3.3.3.7.2.3-.1.5 0 .3.2-.2.3 0 .3.6.2 2.2-.7 3.7 3.4 2 5.4-.4.5-.4.6 0 .4.3-.2.4-.2.2.2-.2.2-.6.3-1.1.2-.5-.2-.7-.1-.5.2.2.3 0 .3-.9.2-.8-.2-1-.2-.5.1.5.3 0 .4-2 .4s-2.6-.1-2.2-.4c.3-.3 0-.3-1.1-.2-2 .2-3.4 0-3-.6.2-.3 0-.3-.4-.2-.7.3-2.7-.4-2.4-.9.1-.2 0-.4-.4-.5-.4-.1-.5 0-.4.1.6 1-1-.2-2-1.4-1.2-1.6-1.3-1.6-2.3-.2-.7 1-.7 1 0 .5.5-.3.2 0-.5.7-.8.6-1.5 1-1.8 1-.2-.2-.2-.1 0 .2.1.2.4.3.7.1.3-.1.2 0-.2.4-.4.3-.6.7-.4.9.1.1 0 .2-.3.1-.3 0-.6.1-.6.4 0 .3-.4.8-.8 1.2-1.2 1-1.5 2-.5 1.8.6-.1.7 0 .3.4-.5.7 0 .8.7.1.3-.3.5-.2.7.1.2.3.1.4-.2.2-.4-.2-.4-.2-.2.1.1.3.5.4.8.3.3-.1.7 0 .8.2.2.3 0 .4-.2.2s-.4-.2-.4 0c0 .4 3.5 2.2 3.9 2 .2-.2.4-.1.4.1 0 .3.2.4.6.3.3-.2.5-.1.3.1-.2.3 0 .4.6.2.7-.2.8-.2.6.2-.2.3 0 .4.6.2s.8-.2.6.2c-.2.3.1.4 1.2.2 1.2-.2 1.4-.2 1 .2-.5.3-.3.4 1.1.2 1.3-.2 1.6-.2 1.2.1-.5.3.3.4 2.6.4 2 0 3.2-.1 3-.3 0-.2.4-.3 1.3-.1 1 .1 1.3 0 1-.3-.2-.4 0-.5.8-.3.6.2 1 .1 1-.1s.3-.3.6-.2c.3.2.6 0 .6-.2s.3-.3.5-.2c.3.1.9 0 1.2-.4l.8-.6c1 0 1.3-.2 2.5-1.4l1-1c-.1.4-.1.5.2.3.3-.2.4-.4.3-.6-.2-.2 0-.6.5-.8.5-.2 1-.8 1.2-1.2.4-.6.4-.8 0-.6-.3.2-.2 0 0-.7.3-.5.7-.9.9-.8.2.2.3 0 0-.6 0-.6 0-.8.2-.6.3.1.3-.6.2-2.1-.1-1.3 0-2.9.2-3.6.4-1.2.4-1.3-.2-.5-.6.7-.6.7-.3-.3.2-1 0-1.4-1-2.4-.8-.6-1-1-.7-.7.5.4.7.4 1 0 .1-.3 0-.4-.1-.2-.2.1-1-.3-1.7-1s-1.2-1-1-.7c.2.3-.2 0-.7-.5-.6-.6-1.3-1-1.6-1.1a8 8 0 0 1-.8-.2l-1-.1c-.2 0-.3-.3-.2-.5.2-.3 0-.4-.5-.3-.5.2-.8.1-.7 0 .1-.2-.7-.6-1.8-.9-1.5-.4-1.8-.6-1.3-.8.8-.3-.4-.1-2 .4-.5.1-.6 0-.4-.3.3-.4.1-.5-.5-.3-.5.1-.7 0-.6-.2.2-.2-.2-.3-1-.1-1 .2-1.3.2-.8-.2s.4-.4-.3-.3c-.8.2-.8.2-.4-.3s.3-.5-.6-.2c-1.3.5-1.5.5-1.2 0 .2-.3-.4-.5-1.2-.4-.2 0-.2-.1.1-.4.3-.3.5-.7.5-1 0-.1-.2 0-.4.3-.4.5-.5.5-1-.2-1-1.2 0-4 1.3-3.6h.5c0-.2 1.5-.3 3.3-.3 1.8 0 3 .1 2.8.3-.3.2 0 .2.6 0 .8-.1 1 0 .9.3-.2.3 0 .3.6.1.6-.2.8-.1.5.3-.2.3 0 .4.4.2.3-.1.6 0 .6.1 0 .2.3.3.6.2.3-.1.7 0 .8.3.2.3.2.3-.1.2-.3-.2-.5-.2-.5-.1l.8.6c.6.3.8.3.6 0-.6-.9.3-.3 1.7 1.1l1.4 1.5.8-1c.4-.6.5-.8.2-.6-.3.1-.1-.2.4-.7.5-.5.7-.7.4-.5-.3.2 0-.3.5-1 .7-.9 1.5-1.7 1.9-2 .4-.2.6-.5.5-.7-.1-.2 0-.4.2-.6.2 0 .5 0 .6.3.2.3.1.3-.3.1-.3-.2-.4-.2-.2 0 .5.5.8.4.9-.4 0-.6-.5-1.2-1.6-2-1-.7-1.3-.8-1-.3.6.7.6.7-.5 0-1-.7-1.5-1.4-.6-.8.3.2.4.1.2-.1-.1-.3-.5-.4-.9-.2-.5.2-.5 0-.3-.3s.2-.4-.1-.3c-.5.4-1.7 0-1.5-.5.3-.4-.9-.8-1.4-.5-.2 0-.3 0-.3-.2s-.3-.3-.6-.2c-.3.1-.6 0-.6-.2s-.3-.3-.6-.2c-.3.1-.6 0-.6-.2 0-.3-.4-.3-1.2-.2-1 .2-1.2.2-1-.2.3-.4.1-.5-.7-.3-.5 0-1 0-1-.2s-1.3-.3-3-.3c-1.8 0-2.8.1-2.8.4m35.4.5c-.3.1 5.4.2 12.5.2 7.2 0 13.2.1 13.4.3.2 0 .3 0 .2-.3-.2-.6-25.3-.8-26.1-.2m40-.1c-2.3.2-1.7.2 2.6.3 3 0 5.5-.1 5.4-.2a34 34 0 0 0-8-.1m22.9.2c-.1.2 1.7.3 5 .3h5l-4.7.1-4.8.2v13c0 9.3-.1 12.8-.4 12.3-.4-.4-.4-.2-.2.7.1 1 0 1.2-.3 1-.3-.1-.3 0-.2.4.2.4.1.6 0 .5-.4-.2-1 1-.9 1.5 0 .3 0 .3-.2.1-.1-.1-.5 0-.8.4-.3.4-.5.5-.3.2.1-.3 0-.4-.4-.2-.3.1-.5.3-.4.5 0 .2-.2.2-.7.1-.5-.1-.7 0-.5.2.1.3-.7.4-2.6.4-2.4 0-2.6 0-2-.5.6-.5.6-.5-.4-.2-1.1.4-3.6-.5-3.2-1.2.1-.2 0-.6-.5-1-.3-.4-.7-1.3-.8-1.9 0-.6-.3-1.2-.5-1.3-.2 0-.3-5.3-.3-12.6v-12.5h-10.2v6.6a172.2 172.2 0 0 0 .4 23c.3-.3.4-.1.2.4-.1.5 0 1 .4 1.5.3.3.5.6.3.6-.1 0 0 .3.5.6.4.3.5.5.3.4-.4-.2-.4 0-.3.3.1.4.4.5.7.4.2-.2.2 0-.2.4-.3.5-.3.6 0 .5.2-.2.5-.1.5 0v.9c.1.5.7.6 1 .2.2-.2 0-.2-.2 0-.4.2-.5.2-.3-.2.3-.4.7-.1 2 1.2.8 1 1.3 1.5 1.2 1.1-.2-.3 0 0 .6.5 1 1 1.7 1.3 3 1.1.3 0 .4.1.2.4-.2.3 0 .4.6.2.7-.2.8-.2.6.2-.2.3 0 .4 1 .2s1.2-.2.8.2c-.5.3-.2.4 1.2.2 1.2-.2 1.5-.2 1.2.1-.4.3.3.4 2.4.5 2.6.1 3 0 2.3-.4-.6-.4-.4-.4 1.2-.2 1.3.2 1.8.1 1.8-.2 0-.3.3-.4.9-.2.6.2.7.1.5-.2-.2-.4 0-.4.5-.2.6.1.9 0 .9-.2s.1-.3.3-.2c.8.4 5.7-3 7-5 .5-.6.5-.7 0-.5-.2.2-.2 0 .2-.3s.6-.6.4-.8c-.1-.1 0-.2.2-.2.3 0 .3-.3.2-.7-.2-.4-.1-.5.2-.4.5.3 1-1 .6-1.7-.2-.3 0-.4.2-.2.3.2.4-.2.2-1.4a146.1 146.1 0 0 0 .4-14.8c0-9.3-.1-14.4-.4-14.5-2-.2-10.3 0-10.4.3m30.7-.2c-3.9 0-6.8.2-6.6.4a111.6 111.6 0 0 0 15.7-.4h-9.1m-99.4.2h2.3l-1.3-.1c-1.3 0-1.7 0-1 .1m143.1 0c.8.2 1 39.8.2 40.2-.5.3 0 1 .8 1 .6 0 .6 0 0-.4-.3-.3 1.2-.4 4.6-.4 3.8 0 5.2.1 5.4.5v-12l-.1-20.4v-8h-5c-3 0-4.8-.1-4.8-.3 0-.3-.4-.4-.9-.4-.6 0-.7.1-.2.2m-146.1 5c0 2.7 0 5 .2 5s.3-1.6.2-3.5c-.2-6-.3-6.7-.4-1.6m106.7-4.5-10 .2V251l-.3-20-.2-19.9v20c0 19 0 19.9.7 20 .5.1.7 0 .5-.3-.2-.4 2.4-.4 10.7-.3a101.3 101.3 0 0 0 13-.4c0-.3.2-.4.5-.2.3 0 .6 0 .6-.2 0-.3.3-.3.6-.2.4.1.6 0 .4-.2 0-.2.4-.6 1.2-1 1-.4 1.3-.5 1.1-.2-.1.3 0 .2.4-.2.3-.4.6-.7.6-.5 0 .1 1-.7 2.1-1.9 1.2-1.2 2.1-2.2 2-2.3l.7-.7c.5-.4.7-.8.5-1-.2-.4-.2-.5 0-.4.5.3 1-.7.7-1.3-.1-.2 0-.3.2-.3s.3-.3.1-.7c-.1-.4 0-.6.3-.4.3.3.4 0 .2-.7-.2-.8-.2-1 .2-.8.3.2.4 0 .2-.8-.2-.6-.1-1 0-.8.2 0 .4-1.9.4-4.6 0-2.7-.1-4.6-.3-4.4-.2.3-.2-.2-.1-1 .2-1.1.1-1.5-.2-1.3-.3.2-.4 0-.2-.6s.2-.8-.2-.5c-.3.2-.4 0-.2-.6s.2-.8 0-.7c-.3.1-.6-.2-.9-.7-.3-.7-.3-1 0-.8.3.2.3 0 0-.5s-.6-.8-.7-.8v.3c.6 1-.1.3-.7-.6-.7-1-.7-1.1 0-.5.4.3-.2-.4-1.4-1.6a9.1 9.1 0 0 0-2.4-2c-.2 0-.3-.1-.1-.3.4-.7-.2-1.3-.8-.8-.5.4-.6.4-.6 0 0-.6-3.4-2-4-1.7-.3.1-.3 0 0-.3.1-.4 0-.4-.8-.3-.6.1-1 0-.8-.1 0-.2 0-.4-.4-.4H206M100 214.7v4.3h11.3v16c0 15 0 15.9.7 16 .6.1.6 0 .1-.3-.4-.3 1-.4 4.8-.4h5.4v-14.8c0-18.5-.8-16.5 5.9-16.5h5.4v-8.6H100v4.3m-36.5-2.3c-.2.2-.5.3-.7.1-.3-.1-.4 0-.2.1.2.2 0 .7-.4 1.1-.4.5-.1.3.6-.3l1.3-1.3c0-.2-.4 0-.6.3m148.4 7c-.6.3-.2.4 1.3.3 1.1 0 2 0 2 .2s.3.3.6.2c.4-.2 1 0 1.4.1.8.5 1 1.2.4 1.2-.3 0-.4-.2-.2-.4 0-.2-.2-.2-.6-.1-.5.1-.7.3-.6.4.4.4 1.6.4 2 0 .5-.3.6-.3.5.1 0 .3 0 .5.3.5 1-.2 2.5 2.2 2 3.1-.4.8-.4.8.2.3.6-.4.7-.4.4.2-.2.5-.1.6.3.4.3-.2.4-.1.2.6-.2.5-.2.8.1.6.3-.2.3.2.2 1.2-.1 1.1 0 1.3.2.7.3-.6.4-.1.4 1.8 0 1.7 0 2.3-.3 2-.4-.7-.6.1-.6 2.4 0 .3-.1.6-.3.6-.2 0-.3.3-.2.6 0 .3-.3.8-.7 1.2-.5.4-.6.6-.3.4.7-.5.6 0-.2.7-.6.5-.9.6-1 .2-.3-.3-.2-.3.1-.1.4.2.4.1.3-.2-.2-.2-.5-.3-.7-.2-.2.1-.3.4-.1.6 0 .2 0 .5-.4.6-.4.1-.5.4-.4.6.1.2-.1.2-.5 0-.4-.1-.5 0-.4.2.2.3 0 .4-.6.3-.7-.2-.7-.2-.3.2.4.2-.2.3-2 .2-1.7-.1-2.2 0-1.5.2.7.2-.1.3-2.8.4-2.6 0-3.8-.1-3.8-.4 0-.3.2-.4.5-.2.4 0 .6 0 .6-.2s-.2-.4-.6-.4c-.5 0-.6-1.4-.6-10.7V219h3.3c2.3 0 3 .2 2.4.5m-101.6.9c.2 1.5.6 1.7.6.3 0-.7-.1-1.3-.4-1.3-.2 0-.3.5-.2 1m108.7 2.1c-.2.2 0 .5.1.6.3.2.4.2.4 0 0-.1.3 0 .7.3.6.4.6.3 0-.4-.9-1-1-1-1.2-.5m14.7 7.7c0 1.3 0 1.7.2 1V229c-.1-.6-.2 0-.2 1.3M79 236.2c-.8.3-.6.8.4 1 .6.1 1 0 1-.3s-.3-.4-.6-.3c-.4.2-.5 0-.3-.2.3-.5.2-.5-.5-.2m84.2 16.4c.5.1 1.2.1 1.6 0 .3 0 0-.2-1-.2-.8 0-1.1.1-.6.2m76.6 13.6-1.3.5v2.6c0 2.5 0 2.5-.9 2.2-.5-.2-1.6-.4-2.4-.3-1.3 0-1.3 0-.2.2 2 .2 2.8.5 3.4 1 .5.6.6.3.5-2.5v-3.1h1.4c.8 0 1.5-.2 1.5-.4 0-.6-.5-.7-2-.2m-141.8.2c-.9.2-1 .4-1.1 3.1-.2 2-.3 2.7-.6 2.3-.5-1.2-.8-.8-.8 1 0 1 .1 1.8.3 1.8.2 0 .3-.3.3-.8 0-.4.2-.8.4-.8s.4 2.2.5 5.2v5.2l1.7.1c1 0 1.7 0 1.7-.2s-.7-.2-1.5-.2l-1.5.2v-16.6l1.7.2c1 0 1.6 0 1.6-.3-.2-.5-1.3-.5-2.7-.2m31.7.3c.5 0 1.2.4 1.5.8.2.3.4.4.4.2 0-.7-.9-1.3-1.9-1.2h-1l1 .2m38.4.7c-1.6.7-2.5 2-2.4 3.7v1.4l.3-1.6c.5-3.2 3.6-4.7 6.7-3.1l1.1.4c0-1.1-3.8-1.7-5.7-.8m83-.2c-1.2.3-3.4 2.2-3.4 2.8 0 .2.5-.2 1-1 .9-.8 1.7-1.3 3.5-1.6 1.4-.3 1.8-.5 1.1-.5-.6 0-1.7.1-2.3.3m13 0-1.6.7c-.9.4-1 .7-1 1.7v1.3l.2-1.3c.3-2.2 3.2-2.6 3.2-.4 0 .9.2 1.1.4.9.7-.7-.4-3.3-1.1-2.9m-204.9.3c0 .1.8.3 2 .3h2.2l1.5 4.6c.9 2.5 1.7 4.5 1.8 4.4l-1.5-4.9-1.6-4.7h-2.1c-1.1 0-2.2.1-2.3.3m10.9.3c-.2.3-.2.7 0 .8.1.2.2 0 .2-.4 0-.5.4-.6 2.2-.6h2.1v15.6h-3.1v-5.7c0-3.2-.1-5.6-.3-5.5-.3.3-.2 10.7.1 11.3.1.1 1 .3 2 .3H75v-16.4h-2.4c-1.7 0-2.4.1-2.5.6m52-.2c0 .2-.2.4-.6.5-.6.1-.8.5-.8 1.6s-.1 1.4-.7 1.4c-1 0-1.2.6-.8 2.1.2 1.2.2 1.2.3-.3 0-1.1.2-1.4.8-1.4.7 0 .8-.3.8-1.5 0-1.4.1-1.5 1.4-2l1.3-.3v1.9c0 1.8 0 1.9 1.2 1.9.8 0 1.2.2 1.2.5s0 .9.2 1.2c.2.5 0 .6-1.2.6h-1.4l.1 3.4v3.5l.2-3.2.2-3.2 1.2-.2c2-.1 2-2.7 0-3-1.3 0-1.3-.1-1.3-2 0-1.7 0-1.8-1.1-1.8-.6 0-1 .2-1 .3m62.4.2c-.1.3-.1.7 0 .8.2.2.3 0 .3-.4 0-.5.6-.6 4-.7l4-.1-4-.1c-3.4-.1-4.1 0-4.3.5m108.4 1c0 .8.3 1.6.5 1.7.4.3 0-2.6-.3-3-.2-.1-.3.4-.2 1.3m-165-.7c0 .4.5 1.1 1.1 1.6l1 .8 1-1 .8-.9-.9.7c-1.1.7-2.2.3-2.8-1-.3-.8-.3-.8-.3-.2m66 0c2.2 1.3 2.6 4 .9 6-.6.8-.9 1.3-.7 1.3 1 0 1.9 1.2 2.1 3.2l.3 2v-1.8c0-1.5-.1-2-.9-2.9l-1-1 .8-1c1.6-2 .2-6.4-2-6.3-.3 0 0 .3.5.6m63 0c.4.2 1 .8 1.3 1.2.5.7.5.7.1-.2-.2-.4-.8-1-1.3-1.2-.8-.4-.8-.4-.1.1m-87.6 1.7c-.2.1-.4.7-.4 1.4 0 1.2 0 1.2.2.2.1-.7.4-1 .6-.8.3.1.3 0 .2-.2-.2-.3 0-.5.6-.5s1.1.3 1.2.7c.2.3.4.5.5.4.8-.8-1.5-1.8-2.9-1.2m19.4.4h1.5c.4-.1 0-.2-.8-.2-.9 0-1.2.1-.7.2m62.7.2c-.7.7-.6 1.5 0 1.2.4-.1.6-.5.5-.8-.2-.4.2-.5 1.4-.5 1 0 1.4.2 1.3.4-.1.2-.4.3-.7.1-.2-.1-.3 0-.1.3.2.3.4.3.8 0 .5-.4.6-.3 1 .5.2.8.5.9 1.9.7 1.8-.1 2-.3 1.6-1.4-.3-.7-.4-.7-.4.1 0 1.3-2.2 1.2-3.2-.1-.8-1-3.3-1.4-4.2-.5m-183 3-1 3.4 1.2-2.8 1-3.4c0-.2-.6 1-1.1 2.7m123-2.6c-.2.2 0 .5.2.6.2.2.3.1.1-.1-.1-.3 0-.5.1-.5.3 0 .5.2.6.4.1.2.2.2.1 0 0-.7-.9-1-1.2-.4m33.8 0c-1.4.7-3 1-3.4.7-.2-.2-1-.3-1.7-.2h-1.3l-.2 5.2c-.3 7.3-.4 7.2 1.7 7.2h1.8l-.1-4.2v-4.2l-.2 4-.1 4h-2.7v-11.7h1.3c1.2 0 1.4.1 1.4.8v.9l.8-.9c.6-.6 1.3-.8 2.6-.9 1 0 1.5 0 1.2-.2-.4 0-.6-.3-.5-.5.3-.4.2-.4-.6 0m-144.9.5c-1.8.5-1.4.6 1.5.3l1.7-.3-1.3-.3c-.3 0-1.1 0-1.9.3m70 0c-.5.1-.2.2 1 .3 1 0 2 .2 2.3.5.3.2.5.3.5 0 0-.2.2 0 .4.3.3.5.4.5.4-.1 0-.5.4-.7 1.3-.8.7-.1.4-.2-.7-.1-1 0-2.4 0-3.1-.2-.7-.2-1.6-.1-2 0m97.2 1.2c0 1.6 1.7 3.9 2.8 3.9 0 0-.3-.5-1-1.1a5 5 0 0 1-1.5-2.8l-.4-1.8v1.8m21.7-.6-.2 5.6.1 5 .2-5.3.2-5.3 1.4-.2 1.4-.2-1.5-.2c-1.2-.2-1.4-.1-1.6.6m-180.2 0v2c.1 1.4.1 1.4.2-.4 0-2.2 2.8-3 2.8-.8 0 .6.2.9.4.7.2-.1.3-.5.2-.8-.1-.3 0-.5 0-.4.3.1.7 0 1.1-.4.5-.3.6-.5.3-.5-.2 0-.5.2-.6.4-.2.2-.5.2-1 0-1-.6-3.1-.5-3.4.1m14.3.6-1 1 1-.9c.8-.6 1.5-.8 2.5-.7h1.5l-1.9 2.2-1.8 2.2 2-2.1c2.5-2.5 2.5-2.8.3-2.8-1.3 0-1.8.2-2.6 1m10.2-.7c1.2.2 2.4.4 2.7.6.3.2.3 0-.2-.3-.5-.4-1.4-.6-2.7-.5h-2l2.2.2m14.8 0c0 .2.7.3 1.6.2l1.6-.2v11.8h-1.4c-1.2 0-1.4-.1-1.5-1-.1-1-.2-1-.2.1 0 1.3 0 1.3 1.7 1.3h1.7V271H130c-1 0-1.8.2-1.8.3m5.7.2-.3 6.2-.1 5.7h1.9l1.8.1v-3.5c0-3.7.5-5.7 1.2-5.3.3.2.4.1.2-.1-.1-.3.2-.5.8-.6l1.1-.2h-1c-1.9-.1-2.5 1.1-2.6 5.4l-.2 3.9H134v-5.8l.2-5.7 1.2-.1c1.2-.2 1.3 0 1.3 1v1l.8-1c.5-.6 1.2-1.1 1.7-1.2.7 0 .7 0 .1-.2-.4 0-1 .1-1.4.5-.6.5-.7.5-1 0-.2-.7-2.9-.8-3.1-.1m64.5-.2a56.2 56.2 0 0 0 .5 13c.2 0 .4-.2.4-.4s.5-.4 1.2-.4h1.2l-.1-3.8-.1-3.8-.1 3.6-.2 3.6h-2.7v-11.7h1.4c1.3 0 1.5.2 1.4 1.5 0 .4.2.2.4-.3.3-.4 1-1 1.7-1.1.9-.3.5-.4-1.8-.4-1.6 0-3 0-3.2.2m6.7 1.3c.2 1.5.1 1.5-1 1.5-.7 0-1.4.4-1.9.9-.7.8-.7.8 0 .3.4-.3 1.3-.5 2-.5 1.4.2 1.7-.3 1.4-2.5-.2-1.9-.7-1.6-.5.3m5.3-1.3h2.1c.6-.1.1-.2-1-.2-1.3 0-1.7 0-1.1.2m49.5 1.3c0 .8.1 1.5.3 1.5.1 0 .2-.6.1-1.3-.1-1.2 0-1.4.8-1.5.8-.2.8-.2-.2-.3-1 0-1 .1-1 1.6m6.1-1.3c2 .2 1.9 2.3-.2 2.5l-1.4.2h1.6l1.7.1v-1.5c0-1.6 0-1.6-1.5-1.5-1.4 0-1.4 0-.2.2m10 1.2c-.1 1.3-.3 1.6-.9 1.6-1 0-2 .4-2 .9 0 .2.3.2.6 0 .5-.5 1.2-.4 3.3 0 3.3.8 3.6.8 3.6.2 0-.4-.6-.5-1.8-.4l-1.8.2.6-1.2c1.3-2.5 5.5-3.4 7.9-1.6l1.1.8-1-1c-2.2-2-7.1-1.1-8.2 1.4-.2.6-.6 1.1-.7 1.1-.5 0-.3-1.6.3-2 .4-.1.4-.3.1-.5-.2-.2-.5 0-.5.2 0 .3-.2.1-.3-.4-.3-.9-.3-.8-.4.7m12.4-1.2c-.9.8-.3 2.8.8 2.8 1 0 1-.1.1-.3-1.3-.2-1-2 .4-2.5l1-.2h-1c-.6 0-1.2 0-1.3.2m5.8 0c1 .1 1.3.3 1.3 1 0 .6.1.7.5.4.8-.9 0-1.7-1.5-1.6-1.5 0-1.5 0-.3.2m6.9 0h2.1c.6-.1.1-.2-1-.2-1.2 0-1.7 0-1.1.2m13 0c1 0 2.2.4 2.6.8.6.5.9.4.7-.4 0-.2.6-.3 1.4-.3h1.4l-.1 6.6c-.1 3.6 0 6.4.1 6.1.2-.2.3-3.2.3-6.6 0-6.3.2-7.2 1.3-4.7.6 1.3.5.5 0-1-.1-.3.3-.4 1.4-.4 1.4 0 1.6 0 1.8 1.3.2.7.4 1 .5.8.7-2-6.3-3.8-8.4-2-.3.2-.5.2-.7-.1-.1-.2-1.1-.4-2.3-.3h-2l2 .2m15.4 0c-.3.3.2.3 1.4.2 1.8-.2 1.8-.2 1.6.7-.6 2.2-.6 2.8-.1 1.5 1-2.3.8-2.7-.9-2.7a5 5 0 0 0-2 .3m-228.9 2 .1 2 1-.9c1-1 1.2-1.5 0-.5-.7.7-.7.7-.6-.7 0-.8-.1-1.6-.3-1.7-.1-.2-.2.6-.2 1.8m43-.6c.6 1 .7 2 .7 5.8v4.6h-2.7v-4c0-2.2-.2-4.3-.4-4.6-.4-.5-.4-.5-.2.1l.2 4.8c0 3.9 0 4 .8 4 .5 0 .7.3.6.5-.2.2 0 .4.3.4.4 0 .7-.2.7-.4s.3-.4.6-.4c1 0 .7-9.5-.4-11-1-1.6-1.2-1.4-.2.2m4.2-.2c-.6.7-1.1 1.4-1.1 1.7 0 .3.2.2.4-.3l1.5-1.6c.5-.5.9-1 .7-1-.2 0-.8.6-1.5 1.2m80.1-.2c.7 1 .8 1.7.8 5.6 0 2.4.2 4.4.4 4.4a35 35 0 0 0 .1-9.2c-.1.1-.6-.3-1.1-.9l-1-1 .8 1.1m4.6-.2c-1.5 1.7-1.3 2.1.3.5.6-.7.9-1.2.7-1.2-.2 0-.6.3-1 .7m40.4-.3c0 .2-.2.3-.4.2-.3-.2-.4.2-.4.8 0 .6.1.9.3.5 0-.3.4-.9.8-1.2.3-.5.4-.7.1-.7-.2 0-.4.2-.4.4m25.5.9-1.1 1.2 1.2-1.1 1.3-1.3c0-.3-.3 0-1.4 1.2m6.1-1.2 1.4 1 1.1 1-1-1c-.4-.6-1-1.1-1.2-1.1h-.3M77.5 273c-.4.5-.6 1-.5 1.1 0 .1.5-.3.8-1 .8-1.4.6-1.5-.3-.1m96.6.2-.7 1.3.8-1c.7-.7 1-1.5.7-1.5l-.8 1.2m18.1-.8c0 .4-.3.9-.7 1.1-.6.4-.6.4 0 .4.8 0 1.3-.8 1-1.6-.2-.3-.3-.3-.3.1m14.9.6c-.9 1-1.1 2.5-.5 2.5.2 0 .3.4.2.9l-.2.8.4-.8c.2-.5.6-1 .8-1 .3 0 .3.3.2.4-.2.4 2 1 2.4.7.2-.1-.1-.2-.6-.2-1 0-.4-1.7.9-2.3.4-.2.6-.4.3-.4-.2 0-.8.3-1.2.7-1.9 1.9-4 .7-2.4-1.3l.7-1a4 4 0 0 0-1 1m-147.6.7c0 .9 0 1.2.2.7v-1.6c-.2-.3-.2 0-.2 1m49-.2a6 6 0 0 0-.7 1.7c0 .4 0 .3 1.1-1.5 1-1.8.8-2-.3-.2m142.6-.8c.3.4 1 .8 1.7 1l1.2.1-1.2-.4a10 10 0 0 1-1.7-.9c-.5-.3-.5-.3 0 .3m-133.8.8c1 1.6 1 1.6 1 1.1 0-.2-.4-.8-.8-1.3l-.8-1 .6 1.2m48.6-.7.4.9c.2.4 0 .8-.5 1.3-.9.7-.9.7.2 0 .6-.3 1-.7 1-.8 0-.4-1-1.8-1-1.4M62 278l.2 5-1.6.2c-1.5.2-1.4.2.4.2H63l-.2-4.7c-.1-4.1-.1-4.6.3-3.6l.6 1.7c0 .3 0 .5.2.3.3-.3-1-4.2-1.5-4.2-.2 0-.3 2-.2 5.1m24.1-.3.2 4.8.1-4.4c0-2.5 0-4.6-.2-4.8-.1-.2-.2 1.8 0 4.5m-5.8-3.8c-.4.3-.5.5-.2.3.2-.1.8 0 1.3.2.6.3.7.3.6 0-.2-.2 0-.4.4-.4.6 0 .6 0 .1-.4-.8-.5-1.3-.5-2.2.3m94.3-.4c-.2.2.4.3 1.2.2l1.4-.2-.3 1.7c-.1 1.2-.1 1.5.1 1 .9-2 .5-3-1-3-.6 0-1.3.2-1.4.3m106 .1c-.5.3-.5.4-.1.4.3 0 .4.2.3.4-.2.2 0 .3.4.1.5-.1.5-.3 0-.5-.3-.2-.3-.4 0-.4.8 0 1.7.5 1.5.8-.1.2 0 .4.2.4.7 0 .4-.7-.4-1.2-.9-.5-1.2-.5-2 0m13.1 0-1.5.3h1.6c1 0 1.7 0 1.7-.3v-.3l-1.8.3m-179.3.9.7 1-1.9.2-1.9.1 2 .1c2.4 0 2.7-.4 1.3-1.7l-.9-.8.7 1m6 1.9c.2 4.6.4 5 .4 1.1 0-2 0-3.8-.2-3.8s-.2 1.2-.2 2.7m29.4-1.8c-.4.8-.4.8 0 .3.4-.4.8-.8 1.2-.9.4-.2.4-.2-.1-.2-.4 0-.9.3-1.1.8m3.2 0 1 .8c.3-.2-1.1-1.7-1.5-1.7-.2 0 0 .4.5 1m69-.3c-.4.6-.4.6 0 .2 1-.8 2.8-.6 3.2.4.2.5.3.6.4.3 0-1.5-2.6-2.2-3.6-.9m12.4 0-.6 1.1c0 .2.2 0 .4-.3.2-.4.6-.6.8-.4.3.1.4 0 .1-.3-.2-.4 0-.4.4-.3.4.2.6.1.4 0-.3-.7-.7-.6-1.5.2m26.9 2.3c0 1.7 0 2.3.1 1.4v-3.1l-.1 1.7m38.7-2c-.4.6-.6 1.1-.4 1.3 0 0 .2 0 .2-.3 0-.2.4-.8.8-1.2.4-.4.6-.8.4-.8-.2 0-.7.5-1 1m2.3-.6c0 .2 0 .3.4.2.3-.2.7 0 1 .5.4.8.3.8-1.5 1l-1.8.1 2 .1c2.3 0 2.4 0 1.5-1.4-.7-1-1.2-1.1-1.6-.5m10.3.3c-.4.4-.7 1.1-.7 1.5 0 .6.2.5.4-.2.1-.6.5-1 .7-.9.3 0 .4 0 .3-.3-.2-.2 0-.4.1-.4.2 0 .5.2.6.4.1.2.2.2.1 0-.2-.8-.8-.8-1.5 0m3-.2c.5.3.9 1.2 1 2.4l.3 2V277c0-1.5-.7-3.3-1.6-3.3-.2 0 0 .3.3.6m-143.8.3c-.5.2-1 .6-1 .7 0 .2.5.5 1 .8.8.4.8.4 0-.2-.7-.6-.7-.6.2-.9.5 0 .8-.3.8-.5 0-.4.1-.4-1 .1m58.7.1-.2 2.7v2l.3-2.5c.3-2.8.3-3.2 0-2.2m66 .3c-.2.5-.3 1.7-.3 2.6 0 1.6.1 1.5.4-.7.3-2.7.2-3.4-.2-2m28.8-.3.3 1.2c0 .3.2.2.4-.1.3-.5.4-.4.2.4-.1.6 0 1.5.1 2 .3.7.3.5.3-.9 0-1.2-.3-2-.8-2.5-.7-.7-.7-.7-.5 0m-248.7.1c.5.6 3.3 1 3.3.6 0-.2-.6-.4-1.4-.4-.8 0-1.6-.2-1.9-.3-.3-.2-.3-.2 0 .1m6.4.3c0 .3-.2.6-.5.7-.3.1-.2.2.2.2s.7-.2.7-.7c0-.4 0-.8-.2-.8l-.2.6m9.4 0a2 2 0 0 0-.3 1.4c0 .6.2.5.5-.6.5-1.6.5-1.6-.2-.8m81.4-.2c.3.5-.6 2.4-1 2-.3 0-.3 0-.2.3.5.7 1 .5 1.4-.8.5-1.5.5-1.9 0-1.9-.2 0-.3.2-.2.4m64.2.6c.3.6.5 1.5.6 2 .1.4.2 0 0-.8 0-.8-.3-1.7-.5-2-.3-.2-.3 0 0 .8m69 .7.2 1.8H306c-.9.1-1.2.2-.6.3 1.2.2 1 .7-.2.8a5 5 0 0 0-2.2.9l-1 .5c0-.2-.4-.4-.9-.4-.7 0-.7 0 0 .5.8.7 2 .7 2 .1-.1-.2 0-.5.4-.6.3-.2.4 0 .2.3s0 .3.5-.1c1.4-1.3 3.5-.8 2.8.6-.4.8-.4.8.2 0 .3-.3.6-1 .6-1.4 0-1.1 1-.6 1.6 1 .4.7 1 1.4 1.3 1.6.4.1.6.4.4.7-.2.3-.1.3.2.1.4-.2.4-.5-.3-1-1.1-.9-2-3-2-5 0-1.3 0-1.4-.5-.4l-.4 1-.3-1.4c-.4-2-.8-2-.5.1m15.2-1c.1.6.5 1.6.8 2.2.4 1 .5 1 .3.2l-.8-2.1c-.4-1-.5-1-.3-.2M146.2 277c0 1.3 0 1.8.2 1.1V276c-.1-.6-.2 0-.2 1.2m66.3-1.7c0 .2-.4.4-.9.5-.6.1-.5.2.3.1 1 0 2-1 1-1-.2 0-.4.2-.4.4m3.6 3.6c0 4.2 0 4.2-1 4.2-1.5 0-2.2-.4-2-1.1.2-.5 0-.4-.6.2-.4.5-1 .9-1.3.9-.2 0-.3.1-.2.2.2.2.6 0 1-.2.6-.2 1-.3 1 0 .2.2 1 .4 2 .4h1.6l-.1-3.4c-.2-5.3-.4-5.8-.4-1.2m70.6-1.9c0 1.3.1 2.2.2 2.1.3-.3.4-3.8 0-4 0-.2-.2.7-.2 2m-168.3-.5c0 1.3-.1 1.4-1.5 1.5l-1.5.2h1.7l1.7.1V277c0-1-.1-1.6-.2-1.6-.2 0-.2.6-.2 1.3m-11 .1c0 .7-.2 1.3-.5 1.5-.4.1-.4.2 0 .2.3 0 .5.2.5.4 0 .3-.2.3-.4.2-.2-.1-.4 0-.4.2 0 .3.3.4.6.2.4 0 .6 0 .6.4 0 .3.5 1.1 1.2 1.9l1 1.4c-.1.1.4.2 1 .3h1.3l-1.4-.6c-1.8-1-2.8-2.4-3-5-.3-1.3-.4-1.8-.4-1m41.8 0c0 .8 0 1.1.2.7v-1.3c-.1-.4-.2-.1-.2.7m8.2 0c0 .7 0 1 .2.6v-1.3c-.1-.4-.2-.1-.2.7m-54.4-.4c0 .4.4 1 .9 1.4l.8.7-.7-1.2c-1-1.6-1-1.5-1-.9m42 .1c0 .3 0 .8.2 1 .3.5.4.3.4-.5 0-1.1-.2-1.3-.5-.5m106-.2c.5.4.5.4-.1.4-.4 0-.7.2-.7.4s.6.1 1.3-.1a6 6 0 0 0 1.3-.5l-1.2-.3c-.9-.2-1-.1-.6.1m-83.8.4c-.2.3 0 .3.4.2.7-.3 1.8.5 1.5 1-.1.3 0 .4.3.3.3 0 .5.2.4.4 0 .3 0 .5.3.3.2 0 .6.1.8.5.5.5.5.6-.1.4-.4-.2-.6-.1-.5 0 .1.2-.1.5-.5.6-.5.1-.5.2 0 .2 1.9.2 2-1 .3-2.6-1.8-1.6-2.5-2-3-1.3m22.7 0c1.6 0 2.1.2 2 .6-.2.2-.2.3 0 .1.2-.1.6.1.8.6.4.7.5.7.5.2 0-1.3-1-1.8-3.4-1.8l-2.2.1 2.3.2m68.8.8c.4 1.7.6 2 .6.8 0-.5-.2-1.2-.4-1.5-.3-.5-.3-.2-.2.7m18.8-.1c-.6.6-1 1.3-1 1.7 0 .4.1.3.3-.2.2-.5.9-1.2 1.4-1.7.6-.5 1-.8.7-.8-.2 0-.8.4-1.4 1m49.8.6-.3 1.8c.1 0 .4-.6.6-1.5.3-.9.4-1.7.3-1.8 0 0-.4.6-.6 1.5m-250.2-.5c-.8.8-1.3 3.3-.8 3.7.2 0 .4-.5.4-1.3 0-1 .3-1.9.7-2.3l.6-.8c-.2 0-.5.3-1 .7m164.8 2c0 1.6.1 2.3.2 1.5v-3c-.1-.8-.2-.1-.2 1.5m-54-.7c0 1.7 0 1.8.9 1.5.7-.1.7-.2.2-.3-.5-.1-.7-.7-.8-1.6-.2-1.3-.2-1.3-.2.4m67-1.3c.7.8.6 2.2-.1 2.5-2 .8-4.4 0-5-1.7-.1-.3-.3-.5-.4-.3-.7.6 2 2.7 3.4 2.7 2.7 0 4-1.9 2.3-3.2-.6-.4-.6-.4-.2 0m-190.7 1c1.4 4.5 2.7 6.2 3.5 4.9.1-.2-.2-.4-.7-.4-.8 0-1-.4-1.8-2.7a12 12 0 0 0-1-2.8c-.2 0-.2.4 0 1m17.5-.5c-.6.3-.6.3.3.2 1.2-.2 1.6 1 .6 2-.5.6-2.5.6-2.8 0 0-.2-.1-.1 0 .2.3 1.7 3.7.2 3.7-1.8 0-1.1-.4-1.3-1.8-.6m85 .7c0 1.2.9 2 2 2 .3 0 0-.3-.5-.5-1-.4-1.5-1.3-.8-1.6.2 0 .2-.3-.1-.5-.4-.4-.5-.2-.5.6m45.8-.7c.4 1-.8 2.7-2 2.7-.6 0-.9-.2-.7-.5.2-.3.1-.3-.2-.2-.2.2-.4 0-.4-.3 0-.4.2-.5.4-.4.3.2.4.1.2-.2-.3-.4-.2-.5.2-.3.3.1 1 0 1.3-.3 1-.7 0-.8-1.5-.2-2 .8-.7 3.1 1.4 2.6 1.2-.3 2.3-2.4 1.5-3-.3-.5-.4-.4-.2.1m69.3 0c-.8.2-.8.3.5.2.8 0 1.3-.2 1.2-.4-.2-.3-.3-.3-1.7.1m-193.4 1.6c0 .8.2 1.6.3 1.6l.2-1.6c0-.9-.2-1.6-.3-1.6-.2 0-.3.7-.2 1.6m12-1c0 .3 0 .5.2.4.3-.2 2.3 2.6 2.3 3.1 0 .8 1.4 1.4 2.9 1.4 1 0 1.8.2 2 .5 0 .3.2.4.6 0 .3-.3.1-.7-.7-1.5l-2.2-2.5-1-1.4.8 1.4 1.7 2.2.7.9h-1.8c-1.7 0-1.8 0-3.3-2.3-1.8-2.5-2.3-3-2.3-2.2m10-.4c0 2.2 3.1 3.7 4.6 2.1.5-.6 1-.7 2-.5 1 .2 1.2 0 1-.3-.2-.7-2.2-.7-2.6 0-.2.3-.5.4-.7.3-.2-.2-.3 0-.3.2.3 1.2-2.1.6-3-.8-.6-.7-1-1.2-1-1m114.8 1.3-.1 2.3c0 .5 0 .8.2.7.3-.2.5-4.5.2-4.5l-.3 1.5m-75.7-1 .4 1.1c.8 1.4 4.3.7 4.3-1 0-.2-.3 0-.6.5-.9 1.2-3 1.2-3.6 0-.2-.5-.4-.7-.5-.6m84.4.2c0 .8.7 2 1.3 2 .3 0 .3 0 0-.3-.3-.1-.7-.7-.9-1.2-.2-.5-.4-.7-.4-.5m13 0c-.5.4-.5.7.2 1.9.5.7.8 1.6.6 1.7 0 .2.1.3.5.1.4-.1.6 0 .4.2-.1.2.1.3.6.3.7 0 .6 0-.3-.7-1.8-1.4-2.3-2.9-1-3.3.8-.3.9-.4.2-.4-.4 0-1 0-1.3.3m33.3 0c-.7.7-.6 1.8.1 2.1 1 .4 1.2.3.5-.2-.4-.2-.7-.6-.7-1 0-.3.1-.5.3-.3.2 0 .3-.1.3-.4 0-.7 0-.7-.5-.1m-104.7.4c-.3.3 0 .8 1.4 2l1.8 1.8H177c-1.1 0-2-.2-2.3-.6-.5-.6-1.8-.8-2.1-.2-.2.2-.8.6-1.5.8l-1.3.3h1.5c.7 0 1.3-.2 1.2-.4 0-.1.4-.2 1.1 0 5.4 1 6.2.6 3.8-1.7-.8-.8-1.4-1.7-1.3-2 .2-.6 0-.6-.5 0m62.6 0c0 .4-.7.9-1.2 1-.6.3-1 .6-.9.7.4.3 2.2-.6 2.4-1.2.2-.4.2-.8.1-.9l-.4.5m77.7-.1c.2.7-2 1-2.7.4l.3.3c1 1 4.2 0 3.3-1-.2-.2-.3 0-.3.2 0 .5 0 .5-.4 0s-.4-.5-.2 0m14 .8-.4 1.4c.1.1.4-.4.6-1 .3-.8.4-1.4.3-1.5l-.6 1.1m-137.1-.4c0 .2-.6.4-1.3.4-.8 0-1.1.1-.8.4.5.5 2.5-.2 2.5-.8l-.2-.4-.2.4m-124.2 1.2-.4 1.7c0 .2.3-.3.6-1.1.3-.9.5-1.6.4-1.7 0 0-.4.4-.6 1.1m78-1c0 .3.4.9.9 1.4l.6 1.2c-.2.2.1.2 2.9.5h.6c-2.1-.4-3.4-1-4.2-2.3-.4-.7-.7-1-.7-.8m17.2.2c0 .8 1.8 3.1 2.4 3.1.3 0 0-.3-.4-.6a5.2 5.2 0 0 1-1.5-1.9c-.3-.7-.5-1-.5-.6m94.8.5c-.3 1.2-1.7 2.2-3.5 2.6-1.1.3-1.2.3-.3.4 1.9 0 4.6-2.3 4.2-3.6-.1-.3-.3 0-.4.6m6.4-.4c.1.2.8.5 1.4.6 1.1 0 1.3.2 1.3 1.3v1.2l-2.3-.2c-1.3 0-2.2 0-2 .2.3.3 1.5.4 3.4.3 2 0 2-3.1-.2-3.1-.8 0-1.2-.2-1-.4 0-.2 0-.4-.3-.4-.2 0-.3.2-.3.5m28.2 0c0 .2.6.6 1.3.7 1.3.2 1.7 1.4.7 2.2-.7.4-.7.5 0 .5.3 0 .6-.2.6-.4s.2-.3.4-.2c.1.1.3-.4.3-1.2 0-1.3-.1-1.3-1.5-1.3-.8 0-1.6-.2-1.7-.4 0-.3-.1-.2 0 0m-135.7 1.3c0 1 .1 1.2.2.7v-1.5c-.1-.4-.2 0-.2.8m-32-.7c1.5.3 1.6 2.5.1 2.5-.5 0-1 .2-1.2.4-.2.3.1.3.9.2 1.3-.4 2.1-1 1.8-1.4-.1-.2 0-.4.2-.4s.4-.3.4-.7c0-.5 0-.6-.4 0-.3.5-.3.4-.3-.1 0-.6-.3-.7-1.3-.7-1.2 0-1.2.1-.2.2m105.8.5c0 1 2.4 2.5 3.8 2.5 5.9-.2 6.8-.2 5.4-.4-1.2-.1-1.4-.3-1.4-1.1v-1l-1 1.1c-1.4 1.7-4.1 1.6-5.7-.2-.6-.7-1.2-1.1-1.2-1m45.4 0c0 .3.4 1 1 1.5.4.6 1.1 1 1.4 1 .3 0 0-.3-.4-.6-.6-.2-1.2-.9-1.5-1.4-.3-.5-.5-.7-.5-.4m13.3 0c0 .7 1.5 2.4 2.1 2.4.2 0 0-.3-.5-.6a4 4 0 0 1-1.3-1.5c-.2-.6-.3-.6-.3-.2m-136.3.8c-.5.4-.8.7-.6.7.2 0 .6-.2.9-.5.4-.4.4-.2.2.9-.2 1.2-.1 1.3.2.4.7-1.7.4-2.4-.7-1.5m133.1.1c0 1.4-2.2 1.5-2.7.1-.2-.5-.4-.7-.4-.5 0 .6-1.5 1.5-3 1.8-.7.2-.2.3 1.3.2 1.5-.2 2.5 0 2.5.2s.4.4.9.3c.8 0 .8 0 0-.3-.7-.3-.7-.4.1-.4.5 0 1 .2 1 .4 0 .8.3.2.7-1.1.2-.8.2-1.3 0-1.5-.2 0-.4.3-.4.8m38.2.4c.1 1 0 1.6-.3 1.8-.3.2-.4.4-.2.4 1.2 0 1.6-1.4 1-2.6l-.8-1.1.3 1.5m-207.5-.5-1.5 1c-.7.2-1 .5-.6.5.6 0 3.2-2 2.6-2-.2 0-.4.2-.5.5m76.7.3c-.7.5-1 .8-.7.8.3 0 1-.4 1.5-.8 1.2-1 1-1-.8 0m-116.5.4c1 1 3.4 1.3 5 .6.5-.2.6-.2.5.1-.2.2 0 .6.2.7.2.2.3.1.1-.2-.2-.3.3-.4 1.6-.5 1.7 0 1.8 0 .4-.2-.9 0-1.4-.3-1.4-.7 0-.3-.2-.6-.4-.6-.3 0-.4.3-.3.5.4 1-4.4 1.1-5.6.1l-1-.7 1 1m128.6-.7c0 .4 2.5 1.8 3.3 1.8.4 0 .2-.3-.7-.6-.8-.3-1.7-.7-2-1-.4-.2-.7-.4-.7-.2m109.4.2a5 5 0 0 1-2 .4c-.8 0-1.5.2-1.5.4s-.3.4-.8.4c-.4 0-.8-.3-.8-.6s-.2-.6-.6-.6c-.3 0-.5.2-.3.4.1.3 0 .7-.2 1-.6.6.4 2.7 1.4 3 .4.2.3-.1-.4-.9-.6-.7-1-1.4-.8-1.6.3-.5 2.4-.4 2.9.3.3.3.8.5 1.1.5.5 0 .5 0 0-.3-1.4-.5-1.2-1.6.2-1.6a4 4 0 0 0 2-.6c.9-.6.7-.8-.2-.2m-227.5 1c-.2.1-.1.2.3 0 .4-.1.7 0 .7.5 0 .4.1.5.2.2s.5-.5.7-.5c.3 0 .6.2.8.5.1.4.2.4.2 0 0-.3.3-.5.6-.5s.6-.1.7-.3c.3-.4-3.6-.4-4.2 0m58.5.5c-.3.6-.3 1 0 1.6.4.5.5 1 .4 1.1-.2.2-.1.2 0 .2l1.7.5c1.3.7 4.6 1 5.5.4.3-.2-.4-.3-1.6-.2-4 .3-8.2-2.8-4.8-3.5.6-.1 1.2 0 1.4.2.4.4.5.3.3-.1-.3-1-2.5-1.2-3-.2m38.2-.5c.2.2 2 .3 4.2.2l3.9-.1-4.2-.2c-2.3-.1-4 0-3.9.1m84.4.4c0 .4.3.6.4.3.1-.2.8-.4 1.6-.5 1.3-.1 1.3-.1-.4-.3-1.6-.2-1.8-.1-1.6.5m-112 .2c0 .4-.2.8-.3.9 0 .1 0 .2.3.2s.5-.4.5-.9c0-1-.1-1.1-.4-.2m10-.3c.3.2 1 .4 1.6.3h1l-1-.3c-1.6-.5-2.4-.5-1.6 0m59.2 0 .7.3-.7.2c-.5 0-.1.2.7.2 1.2 0 1.4 0 .8-.3-.7-.3-.7-.3.2-.5.6-.1.3-.2-.8-.2-1.2 0-1.5 0-1 .3m24.9 0c.5.2 1.3.3 1.7.3h.8l-.8-.3c-.4-.2-1.2-.3-1.7-.3h-1l1 .3m49.4 0c.7.3 3.2.5 2.9.2l-2-.3c-1.1-.2-1.4-.1-1 0m27.6 1c-.6 1.8-1.6 2.6-3.5 2.9l-1.6.2.1-1.6c.1-1 0-1.5-.3-1.4-.2.1-.4.5-.3 1 .1.3 0 .8-.2.9-.2.1-.4.4-.4.7 0 .2.1.2.3.1.2-.1.5 0 .6.2.5.7 2.8.4 4-.5 1-.8 2.4-3.3 2-3.7l-.7 1.2m-177.8.4c0 .1.7.3 1.5.3.7 0 1.4-.2 1.5-.3 0-.2-.6-.3-1.5-.3-1 0-1.6.1-1.5.3m166.7 2.3c-.4.2-1.7.3-3 .2-1.3 0-2 0-1.8.2.8.5 4.4.3 5.2-.3.9-.7.7-.7-.4-.1"/><path fill="#040404" d="M58.8 109c-.1 0-.2 20.3-.2 45v44.8h23c28.5 0 32-.4 40.6-4.7 2-1 3.9-1.8 4.1-1.6.2 0 .3 0 .1-.2-.1-.3.1-.7.6-1l3.7-2.8c1.5-1.4 3-2.4 3.1-2.2.2.1.2 0 0-.2 0-.2.7-1.5 1.8-2.9a51.3 51.3 0 0 0 6.3-45.9 41 41 0 0 1-1.7-5 39.1 39.1 0 0 0-13.5-15.5c-1.7-1.1-3-2.2-3-2.4 0-.2-.2-.2-.5 0-.5.1-.6 0-.4-.3.2-.4.2-.5 0-.3-.3.1-2.3-.4-4.5-1.3a55.9 55.9 0 0 0-9-2.7c0-.4-.3-.4-23.2-.6a2984.5 2984.5 0 0 1-27.3-.2m93.7 0s-.2 20.3-.2 45v44.8h24.1l.3-3.5c.1-2 .3-9.5.3-16.6v-13h35.4l.2-1v-18.4l-17.8-.1-17.8-.1v-16.4l20.9-.1 21-.1v-7.8l-.1-10.3V109l-33-.1h-33.3m162 0c-9.3 0-15.3.2-15.3.5 0 1.2-1.7 4.7-2 4.2-.3-.4-.3-.3-.1.3.3 1-2.5 8.5-3 8.1-.3-.1-.4 0-.2.2.4.6-.5 3.3-1 3a133.4 133.4 0 0 1-4.7 13.3l-6.3 16.8c-.9 2.5-1.7 4.3-1.9 4.2-.1 0-.4 0-.5.3-.2.3-.2.4.1.2.6-.3.6.5 0 1.3-.2.5-.3.5-.3 0 0-.4 0-.5-.3 0-.3.4-.5.2-.8-.6a925.1 925.1 0 0 0-8.7-22.8 14977.7 14977.7 0 0 0-10.5-28.3c0-.5-2.3-.6-16.2-.6-15.2 0-16.2 0-16.2.7-.1 48.6 0 88.6.5 89 .2.3 21.3.3 21.6 0 0 0 .2-12.1.2-26.7s.1-27.1.3-27.9c.2-.9.3-1 .4-.5 0 .5.2 1 .4 1.1.3.2.4.6.3 1-.1.5 0 .7.1.6.4-.2.5.4.5 1.7 0 .3 0 .4.2.3a57.9 57.9 0 0 1 4.3 11.7 89 89 0 0 1 5.8 15.7c.5-.3 3 6.5 2.6 7.4-.2.6-.1.6.3.1.3-.5.4-.4.2.3 0 .5 0 .8.1.7.5-.3 1.7 3 1.4 4-.2.4-.1.5.1.2.3-.5 3 6.2 3 7.5 0 .2.3.6.6.8.3.3.5.8.3 1.3-.1.5 0 .7.2.6.2-.1.3 0 .3.2 0 .3 2.6.4 8.3.3h8.2l1-3c.6-1.7 1.1-2.6 1.4-2.5a48 48 0 0 1 4.4-12.7c-.2-.3.2-1.8.7-3.5l4.3-12.4a303.8 303.8 0 0 1 8.1-22.4c.1-.6.2 2.7.2 7.2 0 5.3-.1 7.2-.3 5.3l-.2-3v3c-.1 1.9 0 3.1.2 3.1.3 0 .4 2.3.4 6.2 0 3.6-.2 5.6-.4 5l-.3-1.2v1c0 .6.1 1.2.3 1.3.3.1.4.5.4.8 0 .4-.1.5-.4.4-.2-.2-.3.3-.3 1 0 1.2 0 1.3.3.3.2-.5.4 1.6.4 5.3 0 4.2-.1 6-.4 5.7-.2-.5-.3-.3-.3.6 0 .7.1 1.4.3 1.5.3.2.4 2 .4 4 0 2.6-.1 3.7-.4 3.3-.2-.5-.3-.3-.3.8 0 .8.1 1.5.3 1.5.6 0 .5 1 0 1.3-.4.2-.4.2 0 .2.2 0 .4.5.4 1v1h11.4c8.7 0 11.3.1 11.4.5l.3-2.2c.2-3.2 0-89.6-.2-88.8l-15.3.2M100 129.5c14.9 2 23 17.8 17.5 34.3-1.8 5.5-7.7 12-10.2 11.4-.6-.2-.7-.1-.3.1 2.1 1.5-17.5 4.2-22.5 3l-1.1-.2v-23.7l.2-24.4c0-1 10.6-1.3 16.4-.5m206.3 30.3c0 .7.1 1 .2.6v-1.3c0-.4-.2 0-.2.7m0 3.3c0 .8.1 1.2.2.7s.1-1.2 0-1.6c0-.4-.2 0-.2.9m-63.6 36.8h1.3c.4-.1.1-.2-.6-.2-.8 0-1.1 0-.7.2m70.3 0h1.4c.3-.1 0-.2-.7-.2-.8 0-1 0-.7.2m2.7 0h1.4c.4-.1 0-.2-.7-.2s-1 0-.7.2m3.5 0h1.4c.4-.1 0-.2-.7-.2s-1 0-.7.2M288 210c-4.5.8-4.5.7-4.2 21.3.2 18.2.2 17.9 2.5 19.4 1 .6 2.8.6 21 .6h20l1.4-1c2-1.3 2.2-2.9 1.9-36.5 0-.5-.6-1.6-1.4-2.4l-1.3-1.4H288m29.3 13c.5.5.2 16.5-.4 16.9-.7.4-18.4.4-19.2 0-.8-.6-.6-16.5.2-17 .5-.4 19-.4 19.4 0"/><path fill="#616060" d="M338 108.9h1.4c.3-.1 0-.2-.7-.2-.8 0-1 0-.7.2m6.4 0c-.2.3.3.3 1 .2 1.2-.2 1.4 0 1.7.7.3 1 .6.8.3-.3-.2-1-2.6-1.3-3-.5m10.2 3.4c.2 6.8.3 7.5.4 1.8 0-3.1 0-5.6-.2-5.6s-.3 1.7-.2 3.8m-19-2.4h1.4l-.7-.1c-.7 0-1 0-.7.1m5 0 1.2.2c.6.1 1.2 0 1.2-.1 0-.2-.6-.3-1.2-.3l-1.2.1m-2.7 5.2c0 2.7.1 4.8.3 4.8.2 0 .2-1.8.2-4-.2-5.9-.4-6.2-.5-.8m1.7.3a47.5 47.5 0 0 0 0 0m-9.4 3.5c0 3.7.1 5.2.2 3.5a101.3 101.3 0 0 0-.2-3.5m14.4-2.1c0 1.2.1 1.7.2 1v-2c0-.7-.2-.2-.2 1m3.4-.7c0 .9 1.4 3.8 1.7 3.6.2-.2.2-.4 0-.5-.2-.1-.6-1-.8-1.7-.4-1.2-.9-2-.9-1.4m-121.3 79.4c0 1.5 0 2 .1 1.3V194l-.1 1.5m-50 .9-.1 2.4h-12.2c-6.7 0-12.1.1-12 .2.2.2 24.2.3 24.4 0V194l-.2 2.5m153.6.5c0 1.2 0 1.6.2 1v-2.1c-.1-.6-.2-.1-.2 1m-81.4 1.6c0 .3-.9.5-2.6.5h-2.6l2.5.2c2.3.1 3.6-.3 3-1-.2 0-.3 0-.3.3m-22 1c.2.3.5.6.9.6.5 0 .5 0 0-.4-.4-.2.4-.4 2.6-.5h3.1l-3.4-.3c-3-.2-3.3-.1-3.1.5M235 199.1h1.5c.4-.1 0-.2-.9-.2-.8 0-1.1.1-.6.2m6.2 0c.5.1 1.2 0 1.6 0 .3-.1 0-.2-1-.2-.8 0-1 .1-.6.2m-107.6 12.2c0 .8 0 1 .2.7v-1.4c-.1-.3-.2 0-.2.7m22.3 1.8c0 .8 0 1.2.1.7s.1-1.2 0-1.6l-.1.9m127.7 31.6c0 1.5 0 2.1.2 1.3v-2.7c-.1-.7-.2 0-.2 1.4m5.3 6.7h1.5l-.9-.1c-.8 0-1.1 0-.6.1m22.6 0c.5.1 1.2.1 1.6 0l-.9-.1c-.9 0-1.2 0-.7.1M257.1 269a8 8 0 0 1 1 1.8c.3.7.5.8.5.3 0-.4-.5-1.2-1-1.8-.7-.6-.9-.7-.5-.3m-182.8 1.4c0 1 .1 1.4.2.9v-1.8c-.1-.4-.2 0-.2 1m6 1.4H82c.4-.1 0-.2-.8-.2-1 0-1.2 0-.7.2m31.6 0h1.8c.5-.1 0-.2-1-.2-.9 0-1.3 0-.8.2m29.2 0c.4 0 1 .4 1.4.6.5.4.5.4 0-.2-.3-.4-.9-.7-1.3-.7-.8 0-.8 0 0 .3m82.8 0h1.8c.5-.1 0-.2-.9-.2-1 0-1.4 0-.9.2m49.3-.2 1.2.4c.7 0 1.2 0 1.2-.2s-.5-.3-1.2-.3l-1.2.1m7.4.2h1.5c.4-.1 0-.2-.9-.2-.8 0-1.1 0-.6.2m20.5 0a7 7 0 0 0 2 0c.4-.1 0-.2-1.2-.2-1 0-1.4 0-.8.2m11.9 0h1.6c.3-.1 0-.2-1-.2-.8 0-1.1 0-.6.2m8.5 0c0 .2 0 .6.2.9.3.5.4.4.4-.1 0-.4.3-.7.6-.8.6-.2.5-.2-.1-.3-.5 0-1 .1-1 .3M131 273.4c0 1 0 1.4.1 1v-1.8c0-.5-.1-.1-.1.8m-28.5.1-1.1 1.3 1.2-1.1c1.2-1.1 1.5-1.4 1.2-1.4 0 0-.7.5-1.3 1.2m-28.2.3c0 .8 0 1 .2.7v-1.4c-.1-.3-.2 0-.2.7m23.4 2.4c0 .7.1 1 .2.7v-1.4c0-.4-.2 0-.2.7m-23.4.6c0 .8.1 1.1.2.6V276c-.1-.4-.2 0-.2.9m147 2.7v1.8c.2-1.1.2-2.9 0-3.9v2m-77.6.3c0 2.6 0 3-.6 3.2-.5.2-.5.2.2.3.8 0 .8-.1.8-3.3 0-1.8 0-3.3-.2-3.3 0 0-.2 1.4-.2 3m84.4.3c0 1.9-.1 3-.5 3-.3.2-.2.3.2.3.6 0 .7-.4.7-3.1 0-1.7 0-3.1-.2-3.1a11 11 0 0 0-.2 2.9m-91.7-.4c0 1 .1 1.5.2.9a7 7 0 0 0 0-2c0-.5-.2 0-.2 1m-5.5 1c0 2.1-.1 2.4-1 2.5-.7.2-.6.2.3.3 1 0 1 0 1-2.5l-.1-2.6a7 7 0 0 0-.2 2.3m134.6 1c.1.1.4.2.7 0 .3 0 .6.2.7.6.1.4.2.4.2-.3s-.1-.8-.9-.8c-.5 0-.8.3-.7.5m-49.9 1c0 .2-.5.4-1 .5-1 .2-1 .2.1.2 1 0 1.3 0 1.3-.5 0-.3 0-.6-.2-.6l-.2.4m-93 .5c0 .2.9.3 1.8.3 1 0 1.8-.1 1.8-.3 0-.2-.9-.3-2-.3-1 0-1.8.1-1.7.3m171.4 0-1.1.2h1.2c.7 0 1.3 0 1.3-.3v-.3l-1.4.3m-233.6.3h1.3c.4-.1 0-.2-.7-.2s-1 0-.6.2m12.3 0H74c.4-.1 0-.2-.9-.2-.8 0-1.1.1-.6.2m114.8 0h2.4c.5-.1 0-.2-1.3-.2s-1.8.1-1 .2m77.2 0h1.8c.5-.1 0-.2-.9-.2-1 0-1.3.1-.9.2M151 287.4h1.3c.4-.1.1-.2-.6-.2-.8 0-1.1 0-.7.2"/><path fill="#6c6466" d="M339.8 109c0 .1-.3.4-.7.5-.5.1-.8 0-.8-.3 0-.2-.2-.2-.4.2-.2.3-.2.7 0 1 .3.4.5 2 .5 4.2 0 3.7.1 5.3.7 5.3.2 0 .2-3.9 0-4.9-.1-.2 0-.9.1-1.5.3-.8.2-1.2-.2-1.4-.4-.3-.4-.4 0-.4s.4-.1.1-.5a.9.9 0 0 1 0-1c.3-.5.3-.5.3 0s.2.7.5.5c.2-.1.3-.5.2-.8 0-.4.2-.7.5-.8.5-.2.5-.1 0 .3-.4.3-.2.4.9.3 2-.1 1.9-1 0-1-1 0-1.7 0-1.7.3m13.4.1c-.3.3-.4.7-.2.8h-.1c-1.1-.2-1.6.7-1.7 3.1 0 .4-.2.6-.4.5-.5-.3-.5 0 0 1 .5.9.4.9-.2.4-.5-.5-.6-.5-.5 0 0 .2-.2.6-.6.6-.5.1-.7 0-.5-.2.1-.3 0-.5-.2-.5-.3 0-.4-.3-.3-.7.2-.4 0-1.1-.3-1.6-.4-.4-.5-1-.4-1.3.2-.6-.7-.7-1.1-.2-.2.2-.7-.2-1.2-.8-1-1-1-1-1-.1 0 1 1.5 1.8 2.2 1.2.3-.3.5-.1.7.4l-.1.8c-.5 0-.3.7.3 1.9.3.5.4 1 .2 1.2 0 .2 0 .4.3.4.2 0 .3.4.1.9-.1.6 0 .7.2.3.4-.6.7-.1.7 1.2 0 1 0 1 .5.6s.5-.3.3.3c-.3.6-.2.7.1.3.4-.3.4-.6 0-1.1-.4-.4-.4-.6-.1-.4.3.2.5 0 .5-.3a1 1 0 0 0-.5-.8c-.3 0 0-.1.4 0 .6.2.8 0 .7-.3-.2-.3.1-1.2.6-2 .4-.8.6-1.4.4-1.4-.2 0-.4-.3-.4-.6s.2-.6.5-.6.2-.1-.1-.4c-.5-.3-.5-.4-.1-.4.3 0 .4-.1.2-.4 0-.2 0-.4.4-.4.3 0 .7.4.8.9.2.6.4.7.6.3.3-.5.4-.4.4.1 0 .4-.3.7-.6.7-.4 0-.6.4-.6 1 0 .7.2.9.7.7.4-.2.5-.3.2-.4-.3-.1-.5-.4-.5-.6 0-.2.2-.2.4-.1.5.3.5.2.6-2 0-1-.1-1.6-.3-1.4-.3 0-.3 0-.2-.5.3-.7-.2-.8-.8 0m-8.6 4.7c0 .7.1.8.6.7 1-.3 1-1.5.2-1.5-.4 0-.7.3-.8.8m8.8 1.2c.3.1.5.4.5.6 0 .2-.2.3-.5.2-.4-.1-.5.1-.5 1 0 .6.1 1 .3 1 .2 0 .3-.3.3-.8 0-.7.1-.8.4-.3.2.4.2.8-.3 1.3-1 1.1-.9 1.7.4 1.8h1.2l-.7-.8c-.4-.5-.6-.7-.3-.6.3.2.4 0 .3-.6l-.2-2c0-.7-.2-1-.7-1-.4 0-.5 0-.2.2m-8.2 1.6c.2 1.5.6 1.4.7-.2 0-.6-.2-1.1-.4-1.1s-.3.5-.3 1.3m-.7 2.4c-.3.8-.3.8.9.8.7 0 1-.1.8-.2a.9.9 0 0 1-.5-.8c0-.8-.7-.7-1.2.2m-137 122.6h1.4c.4-.1 0-.2-.7-.2s-1 0-.7.2m-88.4 8.7-3.3.2 3.2.1c1.8 0 3.3 0 3.5-.3v-.3l-3.4.3m-6.7.3h1.6c.3-.1 0-.2-1-.2-.8 0-1 0-.6.2m91.6 0a7 7 0 0 0 2 0c.4-.1 0-.2-1.1-.2-1 0-1.5 0-.9.2m44.1 0h1.4c.4-.1 0-.2-.7-.2s-1 0-.7.2M97.7 267.9c0 .5.2.9.6.9.4 0 .5-.3.3-.8-.1-.5 0-.8.5-1 .4 0 .2-.1-.4 0-.8 0-1 .2-1 .9m71.6-.3c-.6.3-.6.4.3.2.7 0 1 0 .8.4 0 .3-.4.4-.8.3-.5-.2-.6-.1 0 .2.2.2.6.3.8.2.2-.1.3 0 .3.2s.2.4.3.4c.2 0 .4-.2.4-.5 0-.4-.2-.5-.4-.4-.2.2-.3-.1-.1-.6.3-.9-.2-1-1.6-.4m83.3-.1c-1 .2-.8.7.3.7.6 0 1-.3 1-.5 0-.5-.1-.5-1.3-.2m1.7 0c0 .7.7 1 1.5.5.3-.2.4-.4.2-.4a4 4 0 0 1-1-.3c-.4 0-.7 0-.7.2m-183.9.6c0 .3-.4 1.8-1 3.5-.5 1.6-.8 3-.6 3 .2 0 .3-.2.3-.5s.2-.3.5 0c.6.6 0 1.3-.8 1-.5-.1-.8.2-1.2 1.4-.3 1-.7 1.6-.9 1.6-.2 0-.2-.1-.1-.4.1-.2 0-.7-.2-1-.3-.6-.3-.5-.3.6l-.2 3c-.2 1-.1 1.8.1 2 .2 0 .3.4.2.6-.1.3 0 .2.4-.3.5-.6.5-.8 0-1-.4-.3-.4-.7-.2-1.5.2-.6.2-1.3 0-1.4 0-.2 0-.2.3 0s.4.5.3.9c-.1.3 0 .4.2.3.2-.2.3-.6.2-.9-.3-.9.2-1.4.8-.6.4.5.4.8 0 1.2-.7.6-.8 1.6-.3 1.6.3 0 .9-1.2 1.8-3.8.7-2 1-5.6.6-5.3-.2.1-.4 0-.4-.2s.2-.5.4-.6c.2-.1.3-.5.1-.9-.1-.4 0-.5.2-.3.3.1.3 0 .2-.6-.1-.4 0-1 .2-1.3.4-.4.3-.5 0-.5s-.6.2-.6.4m3-.2c.4.3.4.4 0 .6-.3 0-.1.2.4.2.8 0 .8 0 .4-.5-.2-.4-.7-.6-1-.6-.2 0-.1.1.2.3m114 0 1.5.4c-.2 0-.1.3.1.6.3.3.3.6.2.8-.2.1-.1.2 0 .2.3 0 .7-.3 1-.8.3-.6.3-.7 0-.6-.3 0-.5-.1-.5-.4 0-.2-.8-.4-2.1-.4h-2.2l2 .3m62.6.5c-.4 1.1.2 1.8 1.5 1.5l1.7-.2c.4 0 .7-.2.6-.5-.1-.4-1-.6-1-.1 0 .1-.4.2-.8.1-.5 0-1 0-1 .3-.2.2-.4.2-.6.1-.2-.1-.1-.6.2-1.2.4-.6.5-1 .2-1-.2 0-.6.5-.8 1m-127-.3c0 .3-.3.4-.6.3-.6-.2-.6-.1 0 .3.8.5 1.2.3 1-.5-.2-.4-.3-.4-.3 0m43.4 1c-.5 1.2-.6 2.9 0 3.2.3.2.3 0 .2-.4-.2-.3 0-.8.2-1 .3-.4.5-.9.4-1.2-.1-.4 0-.7.5-.8.7-.2.7-.2 0-.4s-1 0-1.3.6m27 0c.2 1.3 1 2 1.5 1.3.2-.3.3-.2.3.3s-.2 1-.5 1.3c-.3.4-.3.5.2.5.8 0 .7-3 0-3.7-.4-.3-.5-.3-.4.1 0 .4 0 .7-.3.7-.2 0-.3-.2-.2-.5 0-.3-.1-.6-.3-.7-.2-.1-.3.2-.3.8m97-.5c-.1.3 0 .7.2.9.6.3.8-.1.4-.9-.3-.6-.4-.6-.6 0M188 269c.2.3 0 .7-.3 1-.7.5-.8 1.5-.2 1.5.3 0 .4-.2.3-.5-.1-.3 0-.8.4-1.1.4-.5.4-.8 0-1-.2-.2-.3-.1-.2.1m4.4.6c0 .5 0 1.1.2 1.4.2.5.3.2.3-.8 0-1.7-.1-1.8-.5-.6m-70.3.4c0 .9.6 1.4.6.6 0-.4.1-.7.3-.7.3 0 .4.2.4.3-.2 1 .1 1.7.7 1.7.5 0 .5 0 0-.6-.4-.4-.5-.9-.4-1.1.1-.4-.2-.6-.8-.7-.7-.2-.9 0-.8.5m134.4-.6c-.3.1-.6.5-.6.8 0 .3-.2.4-.5.3-.3-.2-.3-.1-.2.1.2.3.6.5.9.5.3 0 .5.2.5.4s.5.4 1.1.4h1l-.8-.8c-.5-.4-1.1-.7-1.3-.6-.2.2-.4 0-.4-.1 0-.6 1.1-.9 1.4-.4.1.4.2.4.2 0 0-.6-.4-.8-1.3-.6m-192.8 1c.2.3.3.7 0 .7 0 0-.5.3-.7.8-.6 1-.5 1 .6 0 1-.8.9-2.4 0-2.4-.2 0-.2.3 0 .8m34.8 0c0 .2-.1.3-.4.2-.2-.1-.3.3-.3 1 0 .9.1 1 .2.6.1-.5.4-1 .6-1.3.3-.3.3-.6.2-.8-.2-.1-.3 0-.3.3m192.4 0c-.7.3-.6.4.3.4.7 0 1-.2.9-.4l-.3-.4-.9.4M250 272c0 1.5.4 1.3.6-.2 0-.5 0-1-.3-1-.1 0-.3.6-.3 1.2m-10.9-.4c0 .4.2.9.5 1.1.4.3.5.3.5-.1 0-.3-.1-.5-.3-.4-.2 0-.4-.1-.5-.5-.1-.6-.2-.6-.2 0m25.1.2c.1.4 0 .8-.2 1-.1.3-.1.7.1 1 .4.5.4.5.2 0 0-.4 0-.9.3-1.1.2-.2.2-.4 0-.4s-.1-.2.2-.4c.4-.2.4-.3 0-.5-.5-.2-.6 0-.6.4m-182.3.5c-.7.8-1.6 1-1.3.2.2-.5-1.2-.8-1.5-.2-.1.2 0 .2.4.1.4-.2.5 0 .3.4-.3 1 1 1.2 2 .3.8-.6 1.3-.7 1.5-.5.4.4 1.5.2 1.5-.3 0-.2-.3-.3-.7-.2-.4 0-.9 0-1.1-.3-.3-.2-.7 0-1 .5m7.7-.4c-.3.2-.6.6-.6.8 0 .2.2.1.6-.2.4-.5.8-.5 1.3-.2.5.2.8.2.8 0 0-.5-1.4-.8-2.1-.4m5.6 0c0 .2-.2.2-.5.1-.6-.2-1.3 1-.8 1.4.1.1.3 0 .4-.3.2-.4.4-.3.7.3.4.8.5.8.5-.5l-.1-1.4-.2.4m8.6-.4c-.3 1-.2 1.4.4 1.4.5 0 .8-.2.8-.6 0-.5-.1-.5-.4 0-.3.4-.4.3-.5-.3-.1-.4-.2-.6-.3-.5m16.1.2c-.2.2-.5.4-.5.6 0 .3.2.3.6 0 .2-.2.6-.3.7-.2.2.2.3 0 .3-.2 0-.4-.3-.5-1-.2m14.5 0c-.4.5-.2 1.6.4 2.1.3.3.4.7.3.9 0 .1 0 .3.2.3.3 0 .4-.2.4-.4v-.7c0-.1-.1-.3-.3-.3-.7 0-1-.5-.5-1.1.5-.5 0-1.2-.5-.7m5 0c-.2.5.4 1 1 .7 1.2-.4 2.3.9 1.4 1.5l-.6.6 1.4.4c1.2.3 1.2.3 1-1-.2-.6-.5-1.1-.8-1-.4 0-.6-.4-.5-1.2l-1.2.1c-1.6.5-1.6.5-1.3 0 .2-.2.2-.4 0-.4l-.3.3m11.6.2c.2.6 1.8.7 2 .2.2-.3.1-.3-.1-.2-.3.2-.5.1-.5-.1s-.3-.4-.8-.4-.7.2-.6.5m21.5-.2c-.5 0-1 .3-1 .5s.2.3.4.2c.2-.1.5 0 .6.1.2.3 0 .5-.4.5l-1.1.1-.9.2c-.3 0-.5.2-.5.4 0 .3.3.3.7 0 .5-.2 1-.2 1.3 0 .5.4.5.5 0 .3-.9-.3-1.6.4-1.3 1.2.2.5 0 .5-.6.1-.5-.2-.9-.3-.9-.1l-.4-.3c-.4-.6-1.3.2-.9.8.1.2 0 .4-.2.5-.4.3-.2-1.7.2-2l.5-.8c0-.3-.4 0-1 .7-1.2 1.2-1.5 2-.8 1.7.2 0 .2 0 0 .3 0 .2-.4.3-.7.2-.2 0-.7 0-1 .2-.4.3-.3.3.3.3.5 0 1 .3 1 .6.2.4.1.6-.1.6s-.3.2-.2.4c.1.2 0 .4-.3.5-.2.1-.1.3.3.3.6 0 .7 0 .3.3-.4.3-.3.4.3.6.5.1.7 0 .5-.2-.4-.7-.4-3.4 0-3.2.2.1.6 0 1-.3.5-.4.7-.4 1.4.5.4.5 1.3 1.3 1.9 1.7.7.4 1 .8.8 1.1-.1.3 0 .2.4-.1.6-.4.6-.6.2-.7-.3-.1-.7-.4-.8-.7-.2-.3-.6-.6-1-.6-.3 0-.5-.1-.3-.3.3-.2.4-.3 1.5-.4.3 0 .3-.1 0-.3-.8-.6-1.4-2-.7-2 1 0 2.4-1 2.9-2 .6-1.3.6-1.3-1.4-1m46.2.8c-.2 1.2 1 3.3 1.5 2.5.1-.2.4-.3.6-.2.2.1.5 0 .8-.4.2-.3 1-.6 1.6-.6.6 0 1.1-.1 1.1-.4 0-.2-.2-.2-.5-.1-.5.1-.5 0-.4-.7.3-1.1-.7-.8-1.3.4-.4.9-.5.9-.9.1-.2-.4-.3-.8-.2-1h-.7c-.5 0-1-.1-1.1-.3-.1-.2-.3.1-.5.7m14.2-.4c-.3.3-.3.7-.2.9.1.2-.2.4-.7.5-.7.1-.9.4-1 2v2l.5-1.7c.3-1.3.6-1.8 1.1-1.7.4 0 .6-.1.5-.3-.1-.2 0-.4.2-.4.4 0 .3-.1 0-.6-.5-.5-.4-.5.5-.4 1.2.2 1.4-.3.3-.6-.4-.1-1 0-1.2.3m2.3.3c0 .8-.1 1-.6.8-.4-.2-.6-.1-.4.2.2.2.1.4-.1.4s-.4.3-.4.6-.2.6-.5.5c-.3 0-.4.2-.4.8.1.5 0 1.2-.4 1.5-.3.4-.3.6 0 .4.2-.1.5 0 .6.2.1.3.2 0 .3-.8 0-1.5 1-3.2 2-3.2.4 0 .6-.2.5-.7-.1-.9 1.6-1.1 2-.2 0 .3.3.5.6.5.8 0-1.1-1.6-2.1-1.7-1-.2-1-.1-1 .7m27.3-.6c-.4.3-.4.4 0 .6.4.1.4.2 0 .2-.6 0-.5 1.1.2 1.4.5.2.6.1.2-.3-.3-.4-.3-.6 0-1 .6-.5.3-1.3-.4-.9m3.6 0c-.4.1-.4.3 0 .8.3.4.3.5 0 .3-.2-.1-.5 0-.7.1-.1.3-.4.3-.7.2-.2-.2-.3 0-.1.1.5 1 2 .4 2-.7v-1l-.5.1m3.1.7c0 .6.2 1.1.4 1.3.2 0 .2-.1 0-.4 0-.4.2-.8.8-1 .5-.2.7-.4.4-.4l-1-.2c-.4-.2-.6 0-.6.7m13.7-.6c-.8.2-.6.7.3.7.4 0 .8-.1.8-.3 0-.4-.5-.6-1.1-.4m8 0c-.2.3-.2.5 0 .5s0 .1-.3.3c-.4.3-.7.2-.8 0-.3-.4-.3-.4-.3 0 0 1 1.6.7 1.7-.5.1-.7 0-.8-.4-.2m2.8-.2c-.1.2-.3.6-.3 1 0 .5-.1.7-.4.5-.3-.2-.3-.1-.2.2.4.7 2-.1 2-1 .1-.9-.5-1.2-1-.7m-234.1.5c-.2.3-.2.6 0 .7 0 .2.2 0 .2-.2 0-.3.1-.4.4-.2.2.1.3.5.1.9v.3c.2-.1.6 0 .8.1.3.3.5.2.5-.2 0-.3-.1-.5-.2-.4-.1.1-.5-.2-.8-.6-.5-.6-.8-.7-1-.4m32.8.1c-.2.2-.1.6 0 .8.3.3.5.1.7-.4.2-.9-.3-1.1-.7-.4m18.1 0 1.6.2c1 0 1.5 0 1.4-.2-.4-.3-3-.4-3 0m4.6.4 2 1.9 1 1-.7-1.3c-.3-.7-.9-1.3-1.2-1.3-.4 0-.5-.1-.4-.4.2-.3.2-.3-.1-.2-.2.2-.5 0-.7-.1a.9.9 0 0 0-.6-.4c-.3 0 0 .4.7.8m6.8-.4c0 .2-.3.3-.5.1-.4-.2-.4-.1 0 .2.2.4.6.4 1 .2.7-.4.7-.4 0-.7-.3 0-.5 0-.5.2m26.4.2c-.2.3 0 .5.1.3.2 0 .5 0 .7.4.2.7 3.2.8 3.2.2 0-.2-.6-.3-1.3-.1-1 .1-1.4 0-1.9-.6-.5-.7-.6-.8-.8-.2m44.3-.3-.3 1.1c-.1.6-.1.6.2.2.3-.4.4-.4.7.3.1.6.3.8.5.4l.7-.4c.1 0 .4-.1.5-.4 0-.3-.2-.3-.8-.2-.6.3-.8.2-.5-.2.2-.3.1-.4-.3-.1-.3.2-.4.1-.2-.4.1-.3 0-.6-.2-.6s-.3.1-.3.3m6.6 1c.8.9 1.5 1.3 2 1.1.4-.2.5-.1 0 .3-.2.3-.4.7-.4 1 0 .3 0 .3.3 0 .1-.3.8-.8 1.6-1.3.8-.7 1.2-1.2 1-1.6-.1-.5 0-.4.4.1.3.4.6.6.6.4 0-.8-1.2-1.5-1.6-1-.3.5-.4.5-1 0-.5-.4-.5-.3-.3.3v.5c-.2-.2-.6 0-.8.3-.5.6-.6.6-1.6-.4-.5-.6-1.1-1-1.3-1l1 1.3m13.1-1.1c.2.2 0 .5-.5.8-.8.4-.7.4.6.4 1.2 0 2.1-.8 1.6-1.4-.1 0-.2 0-.2.3 0 .4-.2.4-1 0-.4-.2-.7-.3-.5-.1m14.5.4c.3.4.5.9.4 1 0 .1 0 .3.4.5.8.3.2-1-.8-1.8-.7-.5-.7-.5 0 .3m45.7-.1c-.5.8-.5 1.4.1 1.4.3 0 .5.2.4.4-.2.2-.6.3-1 .2-.5-.2-.5-.2 0 .2.3.2.7.2 1 0 .1-.2.8-.4 1.4-.4.8 0 1-.2 1-.8 0-.5-.3-.7-.6-.6-.3.2-.8.3-1 .3-.3 0-.2.1.1.4.5.3.5.4 0 .2-.3 0-.5-.5-.4-1 0-.9-.5-1.1-1-.3m12.2.2c.2.8.2.9-.3.6-.4-.3-.4-.2 0 .4.6.7 1 .8.6.1-.2-.3-.1-.3.2 0 .7.6.4 3-.3 3-.3-.1-.4 0-.3.2.2.2.5.3.8.2.5-.2.6 1.3 0 2.1-.1.3 0 .4.4.3 1-.4.5-6-.5-7-.8-.8-.8-.8-.6.1m3.3 0c0 .7 0 .8.5.4.6-.6.5-1.1-.2-1.1-.2 0-.3.3-.3.8m12-.1c-.4.5-.4.5 0 .3.3-.2.5-.1.5.1s-.2.5-.4.6c-.2.2-.4.4-.4.6 0 .2.4.2.8 0 .4-.3.7-.8.6-1 0-.3 0-.6.2-.8.2-.3.2-.4-.2-.4s-.8.3-1.1.6m4-.3c.7.2 1.2.6 1.2.8 0 .3 0 .4.2.2.4-.4-.7-1.4-1.5-1.4s-.7.1.2.4m6.3.6c-.5.5-.7 1-.6 1.1.3.2 1.4-1 1.5-1.7.2-.6 0-.5-1 .6m1.7-.6c-.3.5.5.8 1.4.4a3 3 0 0 1 1.9 0c.9.4 1.6.2 1-.3-.3-.4-4-.5-4.3-.1m19 1c0 1.6.3 1.5.6-.2 0-.7 0-1.2-.2-1.2-.1 0-.3.6-.3 1.4m-246.5-.5c-.4.4-.3.7.2 1.2s.5.8.2.9c-.6.2-.7 1-.2.8.2 0 .4 0 .4.3 0 .2-.1.4-.3.4l-.8.1c-.2 0-.4.2-.4.5 0 .2.2.3.4.1.2 0 .4 0 .4.3s.1.3.4-.2c.2-.3.5-.6.7-.5.1.1.3-.6.3-1.6.1-1.5 0-1.7-.5-1.5-.5.2-.5 0-.3-.6.2-.9.1-1-.5-.2m40.9-.2c0 .3-.2.4-.4.3-.2-.2-.4-.1-.4 0 0 .3-.4.4-1 .4-.7-.1-1 0-.8.3.3.9-.2 1-1.2.4-.5-.3-1-.4-1-.2l1 .8c.6.3.9.7.8 1-.1.2 0 .4.4.4.3 0 .5 0 .4-.3-.2-.4.6-2.4.9-2.1l1-.2c.5-.3.7-.2.7 0 0 .3 0 .5.2.3.1-.1 0-.5-.2-1-.2-.3-.4-.4-.4-.1m28 0c-.2.2-.2.4 0 .5.2 0 0 .1-.2.3-.4.2-.4.4.2.9.4.3.5.3.4 0-.2-.3-.2-.5 0-.5.7 0 .9.5.4 1-.3.5-.3.7 0 1 .3.4.5.4.5.2-.2-.9 0-1.4.6-1.4.4 0 .5-.2.2-.7-.2-.4-.3-.9-.1-1 .1-.2 0-.2-.2-.1-.3.1-.4.5-.3.8.4 1-.2.7-.7-.4-.4-.7-.7-.9-.9-.6m33.8-.2c-.2.6-.2 1.8 0 1.8s.3-.4.3-1c0-.8-.2-1.2-.3-.8m19.8.9c-.4.5-.6 1.1-.5 1.3.3.5 1.8-.4 1.8-1 0-.4-.2-.5-.5-.3s-.3 0 0-.4c.3-.3.4-.6.2-.6s-.7.4-1 1m-144 0c-.5.6-.5.6 0 .3.4-.2.4-.1.3.3-.2.3 0 1 .3 1.6.6 1.2.6 1.1.6 2.3 0 .4.1.7.3.5.3-.1.3-.5.1-.9-.2-.3-.3-1-.3-1.2 0-.3-.2-1-.5-1.3-.5-.6-.5-.7 0-.7.4 0 .9.3 1.1.7.4.6.5.6.2 0l-.3-1.3c0-.3-.1-.4-.3-.3-.2 0-.3 0-.3-.2 0-.7-.7-.5-1.3.2m19.5-.4a1 1 0 0 0-.3.7c0 .2.1.2.3.1.1-.1.5 0 .8.2.3.2.5.3.5 0 0-.5-1-1.3-1.3-1m27.2.8c0 .5 0 .9.3.7.2-.1.4 0 .4.3s.2.2.7-.3c.3-.5 1-.8 1.3-.7.3 0 .8-.1 1.1-.3.4-.2 0-.3-1.1-.2-1 .1-1.9.3-2.1.5-.3.1-.4 0-.2-.2v-.6c-.2-.1-.4.2-.4.8m26.7-.3.1 1c0 .5.2.5.8.1.4-.3.8-.6.8-.8 0-.2-.2-.2-.4 0-.2 0-.4 0-.4-.3 0-.2-.2-.3-.4-.2h-.5v.2m78.5.4c.1 1 0 1.2-.2.6-.2-.5-.4-.5-.4-.2 0 .4-.2.4-.8-.1-.5-.5-.8-.6-1-.3-.1.2 0 .4.4.4s.5.2.3.5c-.1.2 0 .3.2.2.4-.3 1.4.6 1 1-.2.2-.5 0-.9-.2-.5-.4-.5-.4 0 .4.4.9.5.9.8.3.6-1 1.2-.8.7.3-.4.8-.4.8.2.1.3-.4.5-1 .3-1.2-.1-.2-.2-.7-.1-1 0-.5-.1-1-.3-1.4-.4-.6-.4-.4-.2.6m6-.4c.6.4.9.8.8.8-1.2.3-1.6.3-1.5 0 0-.6-.1-1.2-.5-1.2-.2 0-.3.3-.1.5.1.3 0 .3-.2.2-.5-.3-.3-1 .3-1 .2 0 .7.3 1.2.7m15.4-.3c-.1.2.2.5.7.7 1.2.4 1.6 1 1.8 2.4.2 1.2.2 1.3.9.5.3-.4.3-.6 0-.4-.2.1-.5 0-.6-.3-.1-.3 0-.7.2-.8.7-.5.4-1.5-.4-1.3-.4.1-1.1 0-1.6-.5-.4-.4-.8-.6-1-.3m14.2.3c-.2.6 0 .7.6.5.5-.1.7 0 .6.3-.2.6-2.7.9-2.7.4l-.1-.8c0-.2-.3-.3-.5-.3s-.3.3-.2.5c.2.7 1.3 1.8 1.6 1.6.2-.1.4 0 .6.2.1.2.4.4.6.4.3 0 .2-.3 0-.7-.4-.4-.4-.5-.2-.4.3.2.7 0 1-.3.2-.3.6-.5.7-.4.1 0 .5 0 .8-.2.5-.3.4-.4-.3-.4-.6 0-1.3-.2-1.7-.6-.6-.5-.6-.5-.8.2m10.6-.4c.5.4.5.4-.2.5-.5 0-.6 0-.2.2.4.2.8.5 1.1.9.3.3.5.4.5.1l-.4-.7c-.2 0-.2-.5-.1-.8.1-.3 0-.5-.5-.5-.6 0-.7 0-.2.3m-163.6.6c0 .7 1 .8 1.4.1.1-.2.1-.3 0-.2-.3.2-.6.1-1-.1-.3-.3-.4-.3-.4.2m45.7.2c0 .5-.3.8-.6.8-.5 0-.5-.1-.1-.8l.6-.8v.8m4.4-.4c0 .3.1.4.3.4.3 0 .4.2.4.5 0 .2-.2.3-.5.2-.4-.2-.5 0-.4.3.1.3.4.6.6.6.1 0 .5 0 .8.2.4.1.7 0 .8-.3.2-.4 0-.5-.5-.4-.5.1-.7 0-.5-.6.1-.5 0-.8-.4-1-.4-.1-.6 0-.6.1m131.7.4-.4 1s.1.2.4.2c.4 0 .5-.3.4-.9-.1-.7-.1-.7.2-.3.3.3.5.4.5.2 0-.3.6-.5 1.5-.4l1.8-.2c.1-.2-.8-.2-2-.2-1.6 0-2.3.2-2.4.6m45.3.1c0 .6.2 1.1.4 1.1.4 0 .4-.9-.1-1.6-.3-.4-.4-.3-.3.5m-222.6.4c-.4.5-.5.7-.2.4.6-.5 1.6-.2 1.6.4 0 .2-.2.2-.4 0-.3-.1-.4 0-.2.2.2.3.4.4.6.3.6-.4.5-1.3-.3-1.5-.5-.1-.5-.2.2-.2.5 0 .9.1 1 .4 0 .2.3.2.6-.2.4-.4.2-.5-.9-.6-.9 0-1.5.2-2 .8m54.4.1c.1.5.4.9.6.8.2-.2.1-.6 0-1-.6-1-.8-1-.6.2m84.4-.7c-.1.1-.1.5 0 .8.1.3 0 .5-.2.5-.3 0-.5.2-.5.4s.3.2.7.1c.5-.2.5-.1.3.3-.2.3-.2.4 0 .3.3-.2.4-.7.4-1.3 0-1-.3-1.5-.7-1.1m63.4.8c.7 1.6.1 2.8-1.4 2.8-2.2 0-1.5.7.8.7 1.5 0 2.1 0 2.3-.5.2-.5 0-.5-.5-.2-.7.4-.8.3-.8-.4 0-.5.1-.7.2-.6.2.1.5 0 .8-.2.3-.2.6-.2.7 0 .6 1 1 .4.5-.7-.5-1.3-1-1.5-1.3-.5-.2.5-.4.5-1-.3-.7-1-.7-1-.3-.1m-77.8.2c-.4.3-.5.7-.4 1 .3.4.4.3.6-.3.1-.6.4-.8.8-.7.4.2.6.1.4 0-.3-.6-.6-.6-1.4 0m57-.2c0 .7 1.2 1.8 1.6 1.5.6-.3.6-1 0-1-.2 0-.3.2-.1.5.2.2.1.3-.2.1a1 1 0 0 1-.4-.8c0-.3-.2-.6-.4-.6s-.4.2-.4.3m13.6.5c-.2.4 0 .9.2 1 .2.2.3.1.1-.1-.1-.3 0-.5.3-.6.3-.2.3-.3 0-.7-.3-.3-.5-.2-.6.4m1.2-.4c0 .2.3.9.7 1.4.4.6.4 1 .1 1-.3 0-.2.2.2.5.7.8 1.2.8 2.2-.2 1-.9.5-1-.5 0-.6.4-.8.5-1.2.1-.3-.3-.3-.4.3-.4s.5-.2-.3-.9c-.6-.4-1-1-.9-1.1.1-.2 0-.4-.2-.6-.2-.1-.4 0-.4.2m-151.8 1.7c0 .9 0 1.4.2 1.2.1-.3.7-.6 1.1-.7 1-.3 1.2-.9.4-.9-.4 0-.5.2-.4.4.2.2 0 .3-.2.1a1 1 0 0 1-.4-.8c0-1.4-.6-.7-.7.7m28.3-.3c.1.9.3 1.3.6 1 .2-.2.2-.7 0-1.4-.6-1.4-.8-1.3-.6.4m17.6-.6c.2.8 0 .9-.8.6-.7-.1-1 0-1 .2 0 .3 0 .4.2.3 0-.2.6-.1 1.2 0 .5.3.8.3.7.1-.3-.4 1.1-.8 1.6-.5.6.4 1 1.7.4 1.4l.3.5.8.8.1-.8c.1-.6-.3-1.2-1.3-2.1-1.8-1.5-2.5-1.6-2.2-.5m-100.8.1c-.8.6-1 1.3-.2.8.3-.2.3 0 .2.8-.2.7-.2 1 .2 1 .2 0 .3 0 .2-.2-.1-.1 0-.8 0-1.6.3-.7.4-1.3.3-1.3l-.7.5m16.4.3c-.4 1.3-.4 1.4.3 1.4.6 0 .7-.4.2-1.6-.2-.7-.3-.7-.5.2m8.1-.3c.8.4 1 .5 1 0 .1-.1-.3-.3-.8-.4-1 0-1 0-.2.4m60.1.4c.1 1-.7 2.5-1.2 2.3-.2 0-.3 0-.4.3 0 .2 0 .3.2 0 0-.2.4-.2.7-.1.2 0 .6-.2.7-.5 1-2.6 1-2.9.5-2.9-.4 0-.5.4-.5 1m9-.5c-.3.3-.4.7-.1 1 .2.5.3.5.3.2s.2-.5.5-.5c.2 0 .3.1.1.4-.1.2 0 .4.2.4s.3-.4.3-.8-.2-.7-.3-.6c-.2.1-.4 0-.4-.3-.1-.2-.3-.2-.6.2m68.3 0c.1.3 0 .8-.2 1-.3.3-.3.5.2.5.8 0 1-1.4.2-1.8-.3-.2-.3-.1-.2.3m3 0 1 1c0 .5.2.5.2.1 0-.3.2-.4.5-.2s.1-.1-.4-.6c-.4-.4-1-.8-1.3-.8-.4 0-.4.2 0 .5m67 .2c-.3.5-.3 1-.1 1.3.3.5.4.2.3-.7l.4-.5c.3-.2.3-.4.1-.5-.2-.2-.5 0-.7.4m-222 0c0 .1.2.7.5 1 .4.5.6.7.6.4 0-.2-.2-.7-.6-1.1-.3-.4-.5-.6-.5-.4m69.2.5-.5.4c-.4.3-.6.3-1 0-.8-.6-.3-1.2.6-.7l.9.3m-70.9.4c-.2.7-.1.8.5.4l.8-.6h-.4c-.2.2-.4 0-.5-.2 0-.3-.3-.1-.4.4m22-.5.3 1c.5.6-.2 1.6-.8 1.3h-.3l.8.6c.7.4.8.4.6-.1 0-.4 0-.7.3-.7.4-.1.3-.5-.2-1.3-.4-.7-.7-1-.7-.8m-50 .6c-.6.7-.5 2.5.2 3.3.5.5.5.6 0 .8-.2 0-.5.7-.5 1.2 0 .7 0 .8.2.4.1-.6.2-.7.5-.2.2.3.4.4.6.2.1-.1 0-.5-.3-.9-.5-.6-.4-.6.7-.4 1 .2 1.3.2 1.3-.2 0-.2-.2-.3-.5-.2-.3.1-1-.3-1.5-.8l-1-1 1.2.6c.6.4 1.2.6 1.4.5.6-.4.5-1.7-.2-2-.4 0-.5-.4-.4-.8.1-.3 0-.5-.2-.3-.5.3-.4 1.3.1 1.3.4 0 .4.1 0 .5-.8.8-1.8-.8-1.1-2 .4-.6.2-.6-.4 0m8.6 0c0 .2.2.4.7.4.6 0 .8.1.6.6-.2.6-.2.6.3 0 .3-.4.7-.6 1-.5.2.2.3 0 .2-.3-.3-.6-2.4-.7-2.8-.1m30 0 .4.2c.3-.1.5 0 .4.4 0 .3 0 .4.6.1.4-.3 1-.2 1.6.2.5.4.9.4.9.2s-.3-.5-.5-.6c-.3-.1-.2-.2.2-.2.3 0 .6-.2.6-.5 0-.2-.2-.2-.7 0-1 .5-1.3.6-1 .1 0-.1-.5-.3-1.2-.3s-1.4.2-1.4.3m6.9 0c-.1.2-.5.2-1 .1-.5-.2-.5-.1 0 .2.3.2 1 .4 1.4.4.4 0 .5-.1.3-.2-.3-.1-.4-.4-.3-.6v-.3l-.4.3m93.8.1c-.4.3-.4.4 0 .8.5.4.6.4.4 0 0-.4.1-.6.4-.6.2 0 .5-.1.7-.3.3-.3-.9-.2-1.5.1m45.4.2c.3.6.3 1 0 1.1l-.4.7c0 .3.3.1.6-.3s.6-.5.6-.3c0 .3.3.5.6.5.4 0 .5-.1.4-.3v-.6h-.1c-.3 0-.9-.3-1.3-.8l-.8-.8.4.8m24.3-.2c-1.6.2-1.6.2-.5.3a5 5 0 0 1 2 .5c.8.5 2.2-.2 1.8-.9-.3-.4-.7-.4-3.3 0m30.2.6.4 1.3c.4.4.2-1.2-.2-1.8-.3-.5-.3-.3-.2.5m-232-.2c-.1.2 0 .5.3.6.4.1.4.2 0 .2-.3 0-.4.3-.2.6.1.4 0 .6-.4.6-.8 0-.9-.4-.3-1 .4-.3.4-.5 0-.7-.2-.2-.4 0-.4.3 0 .4-.1.6-.4.6-.2 0-.5.4-.8.9-.2.4-.3.7 0 .5.2-.1.7.1 1 .5.7.6.8.6.5 0-.1-.4 0-.7.1-.7.2 0 .4.3.5.7.2.5.2.5.3-.2 0-.5.2-1 .4-1 .2-.2.3-.8.3-1.3 0-1-.5-1.2-.9-.6m50.6.1c0 .2-.3.3-.6.2-.4-.2-.3.1.3 1 .4.6 1 1.1 1 1.1v-.3c-.2-.1-.1-.5.2-.8.4-.6.8-1.9.3-1.4a1 1 0 0 0-.2.6c0 .2-.2.3-.4.2-.2 0-.4-.3-.3-.5l-.1-.5-.2.4m162.4.2c0 1.1 0 1.6.2 2.7.2.7.1 1-.3 1-.3 0-.7.3-1 .7-.4.9 1 2 1.7 1.2.3-.2.3-.4 0-.4-.8.2-1.3 0-1.3-.6 0-.3.4-.6.8-.6.7 0 .7-.2.6-2.2-.2-2.2-.6-3.2-.7-1.8m-223 .6c0 .7 0 .8-.3.4l-.9-.9c-.4-.2-.3-.3.4-.3.6 0 .8.2.8.8m143.6-.4c-.2.3-.1.3.1.2.3-.2.5 0 .5.3 0 .4.1.6.4.4.4-.2 0-1.3-.4-1.3-.2 0-.5.2-.6.4m-127.1.4c0 .3-.1 1-.4 1.4-.3.6-.3.9 0 .9.2 0 .4-.3.4-.7 0-.5.1-.4.3.3.3.8.3.8.3-.5 0-.8-.2-1.6-.4-1.7-.1-.1-.3 0-.2.3m108 .8.1 1.6c0 .1.2.3.5.3.2 0 .3-.3.2-.6-.1-.3 0-.6.2-.7.3 0 .1-.5-.4-1l-.8-.8.1 1.2m84.6-.7v1c0 .5 0 .5-.5 0-.4-.3-.6-.3-.6 0 0 .2.1.4.3.4.3 0 .4.2.4.4s-.1.3-.3.2c-.4-.3-1 .5-.7.8.1.2.5 0 .7-.1.3-.2 1-.4 1.4-.3.7 0 .9-.1.8-.7-.2-.5 0-.8.8-1l1-.2-1-.4c-1.3-.5-2.3-.6-2.3-.1m19.2 0c-.4.4-.3.6.3.8.5.2.7.5.6.8-.2.5-.4.5-.8.2-.4-.4-.4-.3 0 .5l.4 1 .5-1c.3-.9.3-1.2-.1-1.6-.4-.2-.5-.6-.4-.8.4-.6 0-.6-.5.1m30.4 1.1c-.8 1.8-1 3.3-.4 2.3.4-.7 1 .2.7 1.1 0 .3.1.6.4.7.2 0 .5-.4.6-1l.5-1.8c.2-.6.2-.7-.1-.2-.4.4-.5.4-1 0-.8-.6-.5-1.2.5-1 .5 0 .7 0 .6-.2-.1-.2 0-.5.4-.6.5-.2.5-.4.1-.6-1-.7-1.5-.3-2.3 1.3m-226.2-1c-.3.2.7 2.4 1.3 2.7.2.1 0-.4-.4-1.1-.4-.8-.7-1.5-.5-1.6v-.3l-.4.3m8 .7c1.2 1 1.3 1.5.5 1.1-.4-.1-.6 0-.6.2s.4.3 1 .3c1 0 1 0 .4-1.4-.3-.5-1-1-1.4-1-1-.2-1-.2.1.8m54.6.5c0 .8 0 1.3.2 1.1.4-.4.5-2.6.1-2.6-.2 0-.3.7-.3 1.5m74.7 0c-.3 1.2-.3 1.6 0 1.4.4-.1.8-2.9.5-2.9l-.5 1.6m-154.2-.8c-.2.2-.4.3-.6.2-.2-.1-.3.2-.2.6 0 .4 0 .8-.3.8-.2 0-.2.2 0 .4.1.3.3.3.5 0 .2-.4.2-.7.1-.9 0-.2 0-.3.2-.3s.5-.3.6-.6c.3-.7 0-.8-.3-.2m57 1c0 1 .2 1.6.6 1.6.4.2.4.1.1-.1-.2-.2-.3-.8-.3-1.4 0-.6 0-1.2-.2-1.3-.2 0-.3.5-.3 1.3m14.8-.8c0 .5-.3.8-.5.7h-.2v.7c-.2.3 0 .2.5-.1.6-.6.7-.5.4 0-.1.5 0 .8.3.8.7 0 .8-.7.2-1-.3-.2-.3-.4 0-.6.3-.2.3-.4-.1-.8-.6-.4-.7-.3-.7.3m52.8 0c-.3.2-.4.6-.3.8.2.1.3 0 .3-.3 0-.2.4-.6.9-.8.6-.2.6-.3.2-.4-.3 0-.9.3-1.1.6m53.8.4c-.3 1.4 0 1.8 1.5 2h1.1l-1-.8a3.7 3.7 0 0 1-1.2-1.6c-.1-.6-.2-.5-.4.4m63-.6c.3.2.4.6.2 1-.2.5-.4.6-.5.3 0-.3-.3-.5-.5-.5s-.1.4.2 1c.4.5.9 1 1.1 1 .3 0 .2-.2-.1-.5-.5-.3-.5-.4 0-.9.9-.6.6-1.8-.4-1.8-.5 0-.5.1 0 .4m-140.7.2c-.1 1.2.2 3.2.5 3.3.2 0 0 .4-.3.6-.7.5-.7.6.1.6.8 0 1-.5.5-1.4a5 5 0 0 1-.3-1.7c0-1.2-.4-2.2-.5-1.4m-62 .8c0 .4.2 1 .7 1.5l.9.8-.7-1c-.3-.6-.5-1.3-.4-1.5.2-.2.2-.4 0-.4l-.4.6m23.8 0c-.2.7.5 1.8 1.2 1.6.2 0 .4.2.4.5 0 .6 1.2 1.2 2.4 1.2.4 0 .5-.1.3-.2-.3-.2-.4-.4-.3-.6 0-.2 0-.4-.3-.6-.3-.2-.3-.1-.2.2.2.2.1.4 0 .4-.3 0-.5-.2-.5-.5s0-.3-.3 0c-.3.5-.4.5-.6 0-.2-.4-.1-.6.1-.4.2 0 .3 0 .3-.3-.1-.3 0-.4 0-.2.1.1.5.3.8.3.4 0 1 .2 1.2.4.3.4.6.4.8.1.1-.2.5-.4.8-.4.4-.1.3.1-.3.6-1 1-1.1 1.4 0 .8.6-.3 1.9-2.3 1.9-2.9 0-.1-.7.2-1.5.7l-1.5 1-1.1-1c-1.2-.9-2-1.2-1.6-.6 0 .2 0 .6-.2.9-.3.5-.4.4-.4-.1 0-.4-.1-.7-.3-.7-.2 0-.3.3-.2.6.2.5.1.6-.2.4-.7-.4-.5-1.3.2-1.5.7-.2.7-.2 0-.2-.3 0-.8.2-.9.5m100.8-.2.1.4c.8-.2 1.7 0 1.6.3-.2.2 0 .3.3.3.4 0 .4-.1 0-.7-.4-.8-1.6-1-2-.3m9.6 0c.3.1.4.5.2.7-.4.7-1 .6-1-.2 0-.5 0-.5-.2-.2-.2.5 1 2 1.6 2 .4 0 0-2.5-.6-2.6-.5-.1-.5 0 0 .2m-62.5.6c0 .2-.3.7-.6 1-.4.5-.5.8-.2 1 .3.2.4 0 .3-.2 0-.3.2-.5.7-.4.7 0 .7 0 .2-.3-.5-.4-.5-.4.1-.4.4 0 .7-.3.7-.6 0-.2-.3-.5-.6-.5s-.6.2-.6.4m-97.2 1c0 1.3.3 2.4.7 2.4.2 0 .3-.3.3-.6s-.2-.4-.4-.3c-.2.1-.3-.3-.2-1.2.1-.8 0-1.4-.1-1.4-.2 0-.3.5-.3 1.1m115-.6c0 .4.2.7.6.8.7.2.7.1.3-.5l-.6-.7-.2.4m13.1 0c.2 1.4 1.3 1.9 1.3.6 0-.5 0-.7-.1-.4-.1.2-.4.5-.6.5-.1 0-.2-.3 0-.6 0-.3 0-.6-.3-.6-.2 0-.3.2-.3.5m6.8.2c-.9 1 .3 3.5 1.2 2.6.1-.1-.2-.5-.6-.8-.9-.6-1.3-1.6-.5-1.1.2.1.4 0 .4-.1-.2-.8 0-1 .7-.5.6.5.6.5.1-.1-.6-.9-.5-.9-1.3 0m67 0c0 .4.3.7.5.6.3-.1.6 0 .8.2.1.3.5.4.9.4s.2-.2-.5-.6l-1.5-1c-.1-.3-.2-.1-.2.3m4.8-.2c-.1.2 0 .3.4.1.5-.2.6-.1.4.2-.1.2 0 .5.2.7.2 0 .3 0 .3-.3-.1-.3.2-.5.8-.4.5 0 .8 0 .7-.2-.3-.5-2.5-.6-2.8-.1m5.5 0c.2.3.6.8 1 1 .4.4.6.8.5 1-.1.2 0 .3.2.3s.4-.2.4-.4.2-.4.4-.4.3.3.1.6c0 .3 0 .6.2.6s.4-.3.3-.7c-.2-1 .2-1.4.7-.6.5.6.5.6.5 0 0-.4 0-.7-.2-.7-1.4-.2-2-.1-2 .1 0 .6-.8.4-1-.3-.2-.4-.6-.8-.9-.8-.3 0-.4 0-.2.4m-139.8.7c-.5.1-1.1.2-1.3 0v.5c.4.8.7.8 1.4.1.4-.3.5-.3.2 0-.3.6.2.7.9.2.8-.5 0-1.1-1.2-.8m18.6.3c-1 .8-1.2 1.3-.4 1 .4-.2 1.7-1.8 1.3-1.7l-1 .7m17.6 0c0 .4.2 1 .6 1.2.5.5.5.5.4 0 0-.3.1-.5.4-.5l.7-.3c.2-.2 0-.3-.5-.2-.5.1-1 0-1.2-.5-.4-.5-.4-.5-.4.2m113 .2c-.2 1.2-.2 1.5.1 1.5.2 0 .4-.5.4-1.2.1-1.3 0-1.5-.4-.3m-241.1 0c.2.2 0 .6-.1.9-.7.8 2.4 2 3.2 1.2.5-.6-.8-1.3-1.8-1-.6.2-1 .2-1 0s0-.4.3-.4l.8-.1c.2 0 .5-.2.6-.4.2-.2 0-.3-.4-.2-.4 0-1 0-1.3-.2-.4-.3-.5-.2-.3.1m6.5.2c.4.5.3.7-.2.9-.6.2-.5.9.2.9.2 0 .3-.2.2-.4-.1-.2 0-.4.1-.6.5-.2.1-1.3-.4-1.3-.3 0-.2.2 0 .5m1 .6c0 .6.2 1 .3 1 .2-.2.3-.7.3-1.2s-.1-1-.3-1c-.1 0-.3.6-.3 1.2m4.4-.1c-.6.5-1 1-.9 1.2.1.1.6-.2 1-.8.5-.6 1-1 1.3-1 .2 0 .2.2-.1.5-.4.5-.4.6.2.4.6-.3.6-1 0-1.2-.2 0-.9.3-1.5.9m19.5-.6c-.3.4.4 1.5 1 1.5.3 0 .2-.3-.2-.7-.3-.4-.5-.8-.4-1 .2-.1.2-.2 0-.2 0 0-.3.1-.4.4m55 0c.2.7 3.8.7 3.8 0 0-.3-2 0-3.1.4l-.5-.5c-.3-.4-.4-.4-.2 0m7.8.2c0 .5-.1.8-.4.8-.2 0-.6.1-.7.3-.3.3.5.2 1.5-.3.3-.1.6-.4.6-.6 0-.2-.1-.3-.3-.2-.2.1-.5 0-.6-.2-.1-.3-.2-.2-.1.2m3.5 0c-.4.4-.3.5.5.5.6 0 .8-.2.5-.6-.5-.5-.4-.5-1 .1m103.1.1c0 .4.2.4.8.1l.7-.5c0-.1-.4-.2-.7-.1-.4 0-.8.2-.8.5m15 .1c.4 1 .6 1.2 1 1 .2-.2.2-.4 0-.7-.3-.3-.4-.6-.3-.7.1-.1 0-.2-.3-.2-.4 0-.5.2-.4.6m-234.6.3c0 .6.2.7 1.2.1.6-.3.7-.3.7.2 0 .3.3.6.6.7.4.2.5 0 .2-.6-.3-1-2.7-1.4-2.7-.4m22-.1c.2.3.6.5.7.4.5-.3 0-1-.7-1-.5 0-.5.1 0 .6m31-.3v.7c.1.2 0 .5-.4.7-.3.3-.3.3.2.2.3-.1.8 0 1 .2.3.2.6.2 1.2 0 .4-.3.8-.4 1-.3v-.6c0-.4-.2-.9-.3-1-.2-.2-.3-.2-.2 0 .2 1.3-.1 1.6-.8.7-.7-.8-1.6-1.1-1.6-.6m44.2 0c-.6.2-.6 1.3 0 2 .3.6.4.6.2 0-.2-.5 0-1 .2-1.3.5-.7.4-1-.4-.7m83.8 0c-.1.2 0 .7.3 1 .5.7.5.7.7 0 .2-.8-.7-1.5-1-1m13.2.4c.3.3.6.7.6 1 0 .1.3.3.6.3s.6-.2.6-.4-.2-.3-.4-.2c-.2.1-.6-.1-.8-.6-.2-.4-.6-.8-.8-.8-.2 0-.2.3.2.7m16-.4c-.3.1-.6.5-.6.9 0 1 1.4.8 2.4-.3.8-.8.8-1 .2-.7l-.9.2v.4c.4.5-.4 1-1 .6-.2-.2-.2-.4.2-.6.6-.4.3-.7-.4-.5m-128.2.9c0 .7 1.3.9 2 .2 0-.2-.2-.2-.5 0-.5.1-.7 0-.7-.4 0-.3-.2-.6-.4-.6s-.4.4-.4.8m59-.3c-.5.6-.5 1.1 0 1.1.2 0 .3-.2.2-.4-.1-.2 0-.4.3-.5.2 0 .4-.3.2-.4 0-.1-.4 0-.6.2m102 0c-.2.3 0 .3.2.2.2-.2.4-.1.4.1s-.3.4-.7.4c-.4 0-.9.2-1 .4-.2.2 0 .3.5.3.8-.1 2-1 2-1.5 0-.4-1.2-.3-1.4.2m-196.5 0c-.7.4-.7.9 0 .9.3 0 .5-.2.4-.3 0-.2 0-.4.3-.5.3-.1.4-.2.1-.2-.2 0-.6 0-.8.2m59.8 0c0 .3.2.5.6.6.4.1.8 0 .8 0 0-.5-1.1-.9-1.4-.5m69.2.2c-.4.3-.5.6-.3.8.3.1.5 0 .5-.2s.1-.3.3-.2c.3.1.4 0 .4-.4 0-.7 0-.7-.9 0m42.6-.2c.3.3 1 .6 1.6.6.6 0 1.4.2 1.7.4.4.1.7 0 .8-.3.2-.4-.2-.5-1.3-.4-.9 0-2-.1-2.4-.3-.7-.4-.8-.4-.4 0m-108.8.4c-.4.2-.3.3.3.5 1 .2 1.9-.3 1.3-.7-.3-.1-.5 0-.5.3 0 .4 0 .4-.3 0-.2-.2-.5-.3-.8-.1m7.4 0c0 .5 1 .5 1.3 0l-.6-.3c-.4 0-.7.1-.7.3m142.8 1-.3 1.1c0 .2-.1.5-.4.7-.4.2-.4.3 0 .3.6 0 1.3-1.4 1.1-2.2 0-.6-.1-.6-.4 0m-171.9.6c0 .2 0 .6.2.9.4.4.4.4.2-.1-.1-.5 0-.7.7-.8l.8-.2h-.8c-.5 0-1 0-1 .2m162.6.4c0 .6.3.9 1.1 1 .7.2 1.2.5 1.1.7 0 .5 2.9 1.1 4 .9l1-.2c.4 0 .6-.3.6-.6 0-.6 0-.6-.6 0-.7.6-1.4.5-1.4-.2 0-.3.3-.3.7-.2.5.2.5.1.2-.3-.5-.6.4-1.3 1.1-.8.2.1.4 0 .4-.2 0-.7-1.1-.5-2 .3-.4.4-.8.7-1 .5-.6-.6-1.7-.3-1.3.4.4.7.3.8-.3.7-.4-.1-.8-.6-.9-1.4-.3-1.4-2.7-2-2.7-.6m-153.9.5c-.4.6-.6.7-1 .4-.4-.4-.5-.3-.3.3.3 1.2 1.2.8 2.2-1 .5-.9-.3-.6-.9.3m155.4-.4c0 .2.2.3.5.1.4-.2.4-.1 0 .2-.2.3-.6.4-.8.3-.6-.4-.6-1 0-1 .2 0 .3.2.3.4m-159 .7c0 .2-.2.3-.5.2-.4-.1-.6 0-.6.2s.3.3.7.3c.3-.1.8 0 1 .3 0 .2.2 0 .1-.5 0-.8-.7-1.3-.7-.5m-4 .3c.3.1.4.4.3.5-.3.5 1.4.1 2-.4.3-.3.2-.4-.2-.3-.3 0-.7.3-.9.5-.2.3-.3.2-.3 0 0-.3-.3-.5-.7-.5-.4 0-.5 0-.2.2m5 1.1c-.5.5-.5.6 0 .6.3 0 .6-.3.7-.6.3-.7-.1-.7-.8 0"/><path fill="#646c67" d="M352.7 108.6c0 .2-.2.3-.4.2-.3-.2-.4-.2-.2.2.2.2.1.6-.1.8-.3.1 0 .3.6.3s.9-.1.6-.2c-.4-.2-.4-.3 0-.7.2-.4.2-.6 0-.8-.3-.1-.5 0-.5.2m-18.3.4c0 .6.4 1.5.7 1.5.2 0 .3-.4.2-1-.2-.8-1-1.3-1-.5m2.8 0c0 .2-.2.3-.5.1-.3 0-.7 0-.8.2 0 .1.3.3 1 .4 1 0 1.5-.4.7-1-.2 0-.4 0-.4.2m1.2.5c0 .2.3.2.6 0 .4 0 .9.1 1.2.5.5.7.5.7.4 0 0-.8-2.2-1.3-2.2-.5m6.6-.3c0 1 1.5 2.2 2 1.7.4-.4.4-.3 0 .2-.2.4-.8.6-1.2.4-.6-.1-.8 0-.8.9 0 1 .4 1.2 1.1.5.4-.4.5-.4.5 0 0 .3.2.5.4.5s.3-.2.2-.4c-.2-.2 0-.4.1-.4.3 0 .3-.3.2-.6-.1-.3 0-.9.3-1.2.4-.6.4-.6 0-.4-.3.2-.6 0-.7-.5-.2-.7-.3-.7-.8-.4-.4.4-.6.4-1 0-.1-.4-.3-.5-.3-.3m-6.1 1.5c-.6.8-.4 1.5.4 1.5.3 0 .3-.1 0-.2-.3-.2-.5-.4-.5-.6 0-.2.1-.3.4-.2.2.2.4 0 .4-.5 0-1-.1-1-.7 0m15.3.6c-.3 1.1-.3 1.1-.7.2-.2-.5-.7-.9-1-.9-.3 0-.5.2-.3.3.1.1-.2.6-.7 1-.4.4-.6.6-.3.5.3-.1.5 0 .5.4 0 .3.1.6.4.6.4 0 .3-.9-.2-1.3a32.4 32.4 0 0 0 1.9.4c.3.1.6.4.6.6 0 .2-.2.2-.4 0-.2 0-.4 0-.4.3 0 .2.2.4.5.4s.3.1 0 .4c-.5.2-.8.1-1-.3-.1-.5-.2-.3-.2.5 0 1.2.5 2 1 1.5.2-.1 0-.4-.3-.6-.5-.3-.5-.3.1-.4.5 0 .7.4.7 1.3 0 1-.1 1.1-.4.7-.3-.5-.4-.4-.4.3 0 .5-.2.9-.4.9s-.4.2-.4.4c0 .3.3.2.8-.2.3-.3.8-.5.9-.4.1.1.2-1.5.2-3.7 0-4.3 0-4.5-.5-2.9m-5.8 1.8.1 1.2c.3.7.3.7.5.1.2-.3.1-.6 0-.6-.3 0-.3-.3-.2-.6v-.6s-.3.2-.4.5m-9.4 1.2c0 .3 0 .8.2 1 .2.5.3.3.3-.5 0-1.1-.1-1.3-.5-.5m6 2.7c0 .8.2 1.5.4 1.5s.4.2.4.5c0 1.6.7.4.7-1.3 0-1.3 0-2-.3-2s-.4.4-.4.9c.1 1.5 0 1.7-.4.3l-.3-1.4v1.5m-222.4 93.5h2.7c.8 0 .2-.1-1.3-.1s-2.1 0-1.5.1m6.9 0h3l-1.5-.1c-1.7 0-2.3 0-1.5.1m24.9 0c.9.1 1.6.4 1.7.8.1.3.1.3.1-.2s-.4-.7-1.7-.7h-1.7l1.6.1m24.3 0h1.4c.4 0 0-.2-.7-.2-.8 0-1 .1-.7.2m18 0h2.1c.6 0 .1-.1-1-.1-1.2 0-1.7 0-1.1.1m6.8 0c1 .1 2.4.1 3.2 0l-1.7-.1c-1.7 0-2.4 0-1.5.1m7 0c1 .1 2.4.1 3.2 0l-1.7-.1c-1.7 0-2.4 0-1.4.1m35.3 1c0 .7 0 1 .2.6v-1.4c-.1-.3-.2 0-.2.7m9.8-.9c.6.2.6 1 .7 6.5l.2 6.3v-6.5l.1-6.5h-.8c-.7 0-.7 0-.2.2m-155.9 3.7c0 1.8.1 2.5.2 1.6v-3.3c0-1-.2-.2-.2 1.7m-11.9-1.4 2 1c.4 0-2.8-2-3.3-2-.2 0 .4.5 1.3 1m-25 .9-1.3 1.4 1.5-1.3c1.4-1.3 1.6-1.6 1.3-1.6l-1.4 1.5m70.8.5c0 1 0 1.3.2.8v-1.7c-.1-.5-.2-.1-.2.9m62-.4c0 .7.2 1 .3.7V213c-.1-.4-.2 0-.2.7m-50.4 1.5c0 1.4.1 2 .2 1.3V214c0-.7-.2-.2-.2 1.2m25.8 1c0 1.7.1 2.4.2 1.5v-3.2c-.1-.8-.2 0-.2 1.7m10.6 4c0 3.4 0 4.7.1 3a89.8 89.8 0 0 0-.1-3m-121-3.8c-.4.7-.6 1.3-.5 1.4l.8-1.2c.8-1.7.5-1.8-.4-.2m73 1.2c0 1 0 1.3.2.9v-1.8c-.1-.5-.2 0-.2.9m62.1 3.1c0 2 .1 2.9.2 1.9v-3.8c0-1-.2-.1-.2 1.9m-106.3-1.6c-.7.9-1.2 1.6-1 1.6 0 0 .7-.7 1.3-1.6.7-.8 1.2-1.5 1-1.5l-1.3 1.5m10.2-.6c0 .9 0 1 1 1 .9 0 1-.1.2-.2-.5-.1-1-.6-1-1-.2-.8-.2-.7-.2.2m45.7 2.2c0 1.6.1 2.3.2 1.5v-3c0-.8-.2-.1-.2 1.5m10.6 0c0 1.2 0 1.7.1 1v-2c0-.7-.1-.2-.1 1m-51.6-1.3a7 7 0 0 0 2 0c.4 0 0-.2-1.1-.1-1.1 0-1.5 0-.9.1m66.9 7.6v3.8a138.2 138.2 0 0 0 0-3.8m74.5-4.5c0 1.5.1 2 .2 1.2V221c-.1-.7-.2 0-.2 1.5m-123.4 2.1c0 2.5 0 3.5.2 2.3a43.1 43.1 0 0 0-.2-2.3M220 223c1.6 1.8 1.7 2 1.3 1.1-.2-.4-.8-1.1-1.3-1.5-1-.8-1-.8 0 .4m36.5 3c0 1.6 0 2.1.1 1.3v-2.7l-.1 1.5m-10.6 1.5c0 .9 0 1.2.2.7v-1.5c-.1-.4-.2 0-.2.8m-64 3.6c0 1.7 0 2.3.1 1.4v-3.1l-.1 1.7m51.5.3c0 1.3.1 1.8.2 1.1v-2.3c-.1-.6-.2 0-.2 1.2m-37.4 2.8v2.2a47.5 47.5 0 0 0 0-2.2m26.9-2.4c0 .9 0 1.2.1.7V231c0-.4-.2 0-.1.8m-100.4 1.6c0 1.3 0 1.8.1 1v-2.3l-.1 1.3m33.6 0c0 1.3 0 1.8.1 1v-2.3l-.1 1.3m89.8 1.8c0 1.6.1 2.2.2 1.4v-3c-.1-.7-.2 0-.2 1.6m-100.4-.8c0 1 0 1.3.2.9v-1.8c-.1-.5-.2 0-.2.9m-23 4.5c0 1.3 0 1.7.1 1v-2.3l-.1 1.3m-30.1-.2c0 1 0 1.3.2.9v-1.8c-.1-.5-.2 0-.2.9m103.5 4.3c0 2.2.1 3.1.2 2v-4c0-1.2-.2-.3-.2 2m-37-2.4a5 5 0 0 0 1.6.8c.2 0-.2-.3-1-.8-1.6-1-2.1-1-.6 0m-36.4 5.3c0 2 0 2.8.2 1.9v-3.6c-.1-1-.2-.2-.2 1.7m123.4-1.6c0 1.1 0 1.5.2 1a7 7 0 0 0 0-2c-.1-.5-.2 0-.2 1m0 4.3c0 .9 0 1.2.2.7v-1.6c-.1-.3-.2 0-.2 1m-147.3 19c.5.9.4 1-.5 1-.4 0-.7.2-.7.4 0 .3.2.4.4.4s.3.2.2.4c-.2.2 0 .5.1.6.3.1.4 0 .4-.2 0-.3.1-.4.3-.3.1.2 0 .5-.2.8-1 1.3-.5 3.7.5 2.7.2-.1.2 0 0 .2a1 1 0 0 1-.7.5c-.4 0-.5.5-.3 2 0 1 0 2-.3 2-.6.5-.5 1.5 0 1.5.4 0 .5.4.4 1.5-.1 1.1-.2 1.3-.5.6-.3-.7-.3-.7-.3 0 0 .8.2.9 1.5 1 1.1 0 1.6-.2 1.6-.5V278l.9.7c.6.6.7.6.3.1-.3-.4-.3-.7 0-.9.2-.1.3 0 .3.1l.4 1.5.5 1.5c0 .2.2.3.7.2.4-.2 1 0 1.2.1.5.3.4.4 0 .2a.7.7 0 0 0-1 .4c-.1.4-.1.6 0 .4.2-.1.5 0 .8.1.6.5 1.8.1 1.8-.6 0-.3-.3-.7-.7-.8-.3-.1-.5-.5-.4-.8.2-.3.1-.5 0-.4-.2.1-.5 0-.8-.3-.4-.4-.4-.6 0-.7.3-.1.1-.2-.3-.3-.4 0-.6-.1-.5-.2.2-.2.1-.5-.1-.8-.3-.3-.4-.8-.3-1a1 1 0 0 0-.2-1c-.3-.4-.3-.5.1-.5.5 0 .5 0 0-.4s-.4-.4.3-.3c.5.1 1 0 1.2-.5.3-.4.7-.7.8-.6.2.1.3-.2.1-.6-.2-.8-.2-.8-.3-.2-.1.3-.3.6-.5.6s-.3-.2-.1-.6c.2-.5 0-.5-.5 0-.7.7-.7.9-.2 1.1.4.2.4.3-.2.3a2 2 0 0 0-1.4.6c-.2.4-.5.5-.7.4 0 0-.4 0-.7.3-.6.5-.6 0-.5-5v-3.2h-1.1c-1 0-1.1.2-.8.8m30-.7c-.2 0-.2 1.8 0 1.8.1 0 .7 0 1.3.2.6 0 1 0 1-.3 0-.2.2-.3.4-.1.6.3.5 0 0-1-.3-.7-1.9-1-2.7-.6m110.5.4.3 2.1c0 2.7.1 2.8.5 2.6.2-.1.3 0 .3.4 0 .5 0 .5-.6 0-.7-.6-1.2-.5-1.2.3 0 .3.2.2.4-.1.3-.5.4-.5.4 0 0 .9-.8 1-1 .2-.3-.7-2.1-.7-2 0 0 .3.2.7.4.8.2.2.2.1 0-.1-.3-.7.3-1 1-.3.2.3.3.5.1.5-.1 0 .1.4.6 1 .5.4.7 1 .6 1.2-.2.1-.1.2.2 0 .2-.1.5 0 .5.2s.2.3.4.1c.3-.2.3 0 0 .4-.4.4-.6 1.1-.5 1.6 0 .7 0 .7-.3.2-.2-.3-.4-.4-.4-.1 0 .2 0 .5.2.6.5.5.5 1.4 0 1.6-.4.2-.5 0-.4-.4.2-.5 0-.5-.3 0s-.7.9-.9 1l-1.1.3c-.6.2-.7.1-.4-.3.2-.4.1-.4-.4 0s-.7.4-.5.2c.1-.3-.1-.5-.6-.7-1-.2-1.3-.2-1.2.3 0 .2 0 .2-.3 0-.8-.5-.3.5.9 1.6.7.7 1.1 1 1 .8-.2-.2 0-.6.5-.9.6-.4.7-.4.7.1 0 .4-.1.5-.4.4-.2-.1-.3 0-.3.2 0 .6.8.5 1.4-.3.3-.4.4-.4.3 0-.4.6.8-.2 1.7-1.2.4-.6.6-.2.5 1.1l1 .2c1 0 1.2-.4.5-.8-.6-.3 0-1 .6-.7.5.2.6-.3.5-3.6 0-2.1-.1-3.6-.2-3.2-.2.7-1.3 1.3-1.3.7 0-.2.2-.4.4-.4.3 0 .4-.3.3-.7 0-.4.1-.6.4-.6.4.1.5-.6.5-2.4 0-2-.1-2.5-.5-2.3-.3.2-.3.1 0-.4.9-1 .4-1.6-1.2-1.6-.7 0-1.3.2-1.1.4m-68 .1c0 .2-.6.4-1.4.3-.9 0-1.5.1-1.3.3 0 .2-.1.3-.6.1-.7-.2-.7-.2 0 .4.8.5.8.5.1.5-.5 0-.6.3-.5.7 0 .4 0 1-.4 1.2-.2.3-.4.8-.2 1.1.1.5 0 .6-.2.4-.7-.4-.6 0 .3 1 .5.5.7 1.2.6 2 0 .6 0 1 .1.9.2-.1.7 0 1 .3 1.1.8 2.8-.3 2.2-1.3-.5-1 .3-1.7 1.3-1.1.8.3.8.3 0-.3-.7-.6-.7-.6.2-.8.4-.1.8-.4.6-.6-.2-.4-1.5-.1-1.5.4 0 .9-1.1 1.2-1.7.5-.3-.4-.4-.5-.2 0 .2.4.1.4-.2 0-.3-.1-.5-.9-.5-1.6 0-.7-.2-1-.5-1-.2.2-.2 0 0-.3.5-.5.5-.6 0-.8-.2 0 0-.2.5-.4.4 0 .7 0 .6.1 0 .2.2.3.6.1.5 0 .8-.3.8-.5s-.1-.3-.3-.2c-.2.1-.6 0-.9-.2-.5-.3-.4-.4.1-.2.4.1.7 0 .9-.3 0-.3.2-.3.2 0 0 .4.2.5.5.3.3-.1.4-.1.2 0-.4.5.4 1.8 1.1 1.8.3 0 .5.2.4.4-.1.2 0 .4.2.6h-.3c-.5-.2-1 0-1 .1 0 .3.8.4 1.6.4 1.2-.1 1.6-.3 1.6-.8 0-1.1-.8-2.6-1.4-2.4-.3.1-.7 0-.8-.4-.1-.3-.5-.5-.8-.3-.4.1-.5 0-.4-.3.2-.2.1-.4 0-.4-.3 0-.5.1-.5.3m82.8.1c0 .5-.3.6-1.4.5-1 0-1.6 0-2 .6-.5.7-.2 1.4.4.9.6-.5 1.1-.5 1.7 0 .4.3.5.3.3-.2-.2-.4 0-.6.5-.5.4.1.7.3.6.5 0 .2.4.6.9.9.8.3 1 .3 1-.2 0-.3.2-.6.5-.6.4 0 .6-.2.6-.4s.2-.3.5-.1c.3.2.3 0 .2-.2-.2-.2-.5-.4-.7-.2-.2 0-.4 0-.6-.3-.1-.2-.5-.3-1-.1-.4.1-.8 0-1-.5-.4-.6-.5-.6-.5 0M59.4 270c0 1.8 0 2.2.6 2 .3-.1.7.1 1 .5.3.4.7.7 1 .6.3-.2.8 0 1.2.3.3.3.5.3.3 0-.4-.7.6-1 1.2-.2.7 1 .7 1.3-.2 1-.4 0-.9 0-1 .3-.2.3-.2.4 0 .3.3-.2.7 0 1 .4.3.4.3.5 0 .4a.5.5 0 0 0-.7.1c-.1.3 0 .4.2.2.2-.1.5 0 .6.1.2.2 0 .5-.1.7a1 1 0 0 0-.4.7c0 .2.1.2.4-.2.4-.6.4-.4.4 1.5 0 .9 1 1.6 1 .8.3-2.5.2-3.5-.3-3.2-.3.2-.3 0 0-.6.4-.7.4-.8 0-.6-.4.2-.4.1-.2-.4.1-.4 0-.9-.1-1.1-.4-.5-.5-.7-.5-1.6 0-.4-.2-.6-.5-.6-.4 0-.6.1-.6.3 0 .2-.3.5-.6.6-.5.2-.5.1-.1-.5.3-.5.6-.8.8-.8.2 0 .1-.3-.1-.8-.3-.5-.3-.8 0-.9.5-.2.5-.2 0-.2-.2 0-.4-.4-.4-.8 0-.6-.3-.7-2-.7h-2v2.4m11.7-1.9c-.2.3-.3.9-.2 1.3.1.5 0 .7-.2.6-.3-.2-.3 0-.2.3.2.4.1.8-.1.9-.2.1-.4.4-.4.6 0 .2.2.3.3.2.2-.1.4 0 .4.4 0 .3-.2.4-.3.3-.6-.3-.7.5-.1 1.4.5 1 .5 1 .3.1-.1-.5 0-.9.2-.9s.4-.4.4-.8c0-.8.1-.8.3-.1 0 .4.4.9.6 1 .3.2.3.3 0 .3s-.5.3-.5.7c0 .4.2.5.6.3.6-.2.6-.1 0 .6-.4.4-.6 1-.5 1.3l.2.8c-.4.5 1.3 1.4 1.8 1 .9-.7.8-9.7-.1-9.8-.6 0-.6 0 0-.3.3-.2.3-.4.1-.5h-1.2c-.5-.1-1.1 0-1.4.3m52.4.2c0 .4-.1.7-.3.7-.2 0-.3-.2-.2-.5.1-.4 0-.6-.2-.6-.3 0-.4.2-.2.4.2.3 0 .4-.6.3-.7-.3-.8-.1-.8 1.7 0 1.7 0 1.9-.6 1.5-.3-.3-.7-.4-.8-.3-.2.2 0 .3.2.3.4 0 .4.1 0 .5-.4.5.2 1 1.4 1.2.2 0 .3.3.2.6-.3.9-.3 7.4 0 7.4.7-.1 1.2 0 1 .4-.3.5 1.5 1 2.7.7.6-.2 1 0 1 .2.2.3.3 0 .3-.6 0-.8-.1-1-.4-.6-.2.4-.3.4-.3-.2 0-.3-.2-.6-.4-.6-.3 0-.3.1-.2.3 0 .2-.1.3-.5.2l-.9-.1.4-.5c.5-.3.5-.3-.2-.3-.5.1-.8 0-.9-.6 0-.5 0-.6.2-.3.2.2.3-.7.4-2 0-2.2-.1-2.4-.6-1.9-.4.5-.5.5-.3 0 0-.2-.2-.7-.5-1-.6-.4-.5-.5.2-.4.5 0 .7 0 .6-.6 0-.6 0-.6.7-.3.7.4.9.3 1-.1.2-.4.5-.5.7-.4.2.1.3 0 .2-.5-.1-.5-.4-.7-1.2-.6-1 .1-1.1 0-1-.7 0-.5 0-1-.4-1-.2-.2-.4 0-.4.4 0 1-.6.4-.6-.5 0-.6.1-.7.8-.6.8.2 1 0 1-.8 0-.6-.2-1-.3-1 0 0-.2.3-.2.8m61.6-.5c-.5 1-.3 8 .3 7.5.5-.4.6-.4.6 0 0 .2.2.3.3.2.2 0 .4.2.4.6 0 .4-.1.8-.3.8-.2 0-.3-.2-.2-.4.2-.3 0-.4-.1-.4-.3 0-.5.2-.5.5s0 .3-.3-.1c-.3-.5-.4-.2-.4.9 0 .9.1 1.4.4 1.2.3-.2.5.9.4 2 0 .4.1.9.4 1.2.3.4.3.5-.2.3-.3-.1-.7-.8-.8-1.7 0-1.3-.1-1.3-.2.4v1.8h2.3c1.2 0 2.8.2 3.5.3 1 .2 1.2.2 1-.2-.2-.4 0-.4 1-.3 1.2.1 1.4 0 1.3-.5 0-.4 0-.9.3-1 .3-.1.3 0 .2.1-.1.3 0 .6.3.7.3.1.7 0 .9-.2.1-.3 0-.4-.2-.2-.2.1-.4-.3-.4-1 0-.6.1-1 .3-.9.7.4.4-1-.3-1.7-.4-.3-.5-.4-.2-.3.3.2.4 0 .2-.6-.1-.6 0-.8.3-.5.3.2.4.1.3-.2-.2-.2-.6-.3-1-.1-.4.1-.5 0-.3-.4.3-.4.2-.4-.2 0-.8.7-1.4.6-1.6-.3-.2-.7-.1-.8.7-.6.7.1 1 0 1.3-.6.3-.4.3-.8.1-.8-.1 0 0-.2.5-.4.7-.3.7-.3 0-.3-.5 0-.6-.2-.3-.5l.6-1.5c.2-.9.2-1-.3-.3-.7 1-1.8 0-1.6-1.5.2-1-.6-1.5-2.3-1.1-1.3.3-5.2.2-5.7 0a.3.3 0 0 0-.5 0m79.2.4c.2.6.2.6-.2.3-.6-.6-1.5-.7-1.5-.1 0 .2.2.3.4.2.2-.2.4 0 .6.1.1.3-.1.4-.6.4-.4 0-.8-.2-1-.4v1.5c0 1 0 2-.1 1.9-.1-.1-.5 0-1 .2-.7.4-.7.5.5 1.2.7.4 1.2.9 1.2 1.1 0 .3-.2.3-.4.2-.4-.3-.5 6.1 0 6.4l.8 1c.7 1 3.9.6 3.9-.5 0-.5-.1-.5-.5-.1-.7.6-1.2.5-.7-.2.4-.5.4-.5-.2-.3-.4.2-.6.1-.4-.1.1-.2-.1-.8-.6-1.3-.9-1-1-1.5-.1-.8.8.7.8-4 0-5-.4-.3-.5-.7-.3-1 .2-.2.3-.7.2-1.1 0-.4 0-.6.3-.5.2.1.3-.6.3-1.5 0-1-.2-2-.4-2-.3-.3-.4-.1-.2.4m28.2-.3c0 .2-.2.3-.6.2-.6-.2-.7 0-.6.8.2.8 0 1-.3 1-.2-.2-.4-.5-.4-.9 0-.3-.1-.5-.3-.4-.2.1-.4.9-.3 1.7.1 1.1 0 1.4-.6 1.3-.5 0-.6 0-.2.5.3.4.3.6 0 .6s-.4.1-.3.3c.2.2.1.4 0 .5-.2.1-.1.1.2 0 .7-.1.9.5.9 4 0 1.8.2 3.5.4 3.6.2.1.2.4.1.6-.1.2 0 .3.2.3s.4-.2.6-.6c0-.3.4-.5.7-.5.3 0 .7-.3.8-.6.2-.4.1-.6 0-.4-.5.2-.9-1.6-.6-2.7.2-.8.2-.8.5.1.2.7.3.4.3-1.1 0-1.3 0-2-.3-1.7-.2.4-.3.4-.5-.2-.1-.5 0-.7.6-.7s.9-.2 1-.9c0-.4.3-.7.5-.6.2.1.2.4.1.6-.1.2 0 .3.2.3.7 0 .3-.8-.5-1.3-.5-.3-.7-.3-1 .1-.2.4-.4.4-.6.1-.1-.2 0-.4.2-.4s.4-.9.4-2c0-1-.2-2-.4-2-.3 0-.4.2-.2.4M190 269.1c-.5.6.4 1.3 1.2 1l.9-.2c.2 0 .4-.3.5-.7l.1 2c0 1.4-.1 2.5-.2 2.4 0 0-.5.1-.9.5-.4.3-.7.5-.7.2 0-.2-.8-.3-1.9-.2-1.8 0-2.5-.7-1.5-1.7.1-.1 0-.5-.2-1-.4-.5-.3-.8.2-1.4.4-.4.6-.9.4-1-.2-.2 0-.2.2 0 .3 0 .4.4.3.6-.2.2-.1.3 0 .3.7 0 1-.5.6-1-.3-.3-.1-.4.5-.4.8 0 .9.1.5.6m58.6.9c-.4.8-.6 1-.8.7 0-.3-.2-.1-.1.5 0 .6.2 1 .4 1 .3 0 .2.2-.2.5-.5.3-.5.4.5.5.3 0 .5.3.6.5v.9c.2.5 2.3.2 3-.5.8-.8.7-.8-.6-.3-1 .3-1 .3-.8-.7.1-.8 0-.9-.3-.4-.3.4-.4.3-.4-.7 0-.9.2-1.3.5-1.3s.7-.3.8-.6c.2-.6.2-.6-.3-.2-.5.5-1.7-.4-1.1-.9.1-.1 0-.3-.2-.3-.3 0-.8.6-1 1.3m8-.2c-.5.2-.7 1-.2.9 1-.2 1.5 0 1 .4-.4.2-.5.4-.2.4s.7-.4 1-.8c.3-.7.3-.8-.1-.6-.3.2-.6.1-.7 0-.2-.3-.5-.4-.8-.3m35.3.5c.1.2-.2.4-.9.4-1 0-.9-.2.6-.8l.3.4m-209.2 1.5v.6c0 .1-.2.3-.4.3s-.4-.2-.4-.4c0-.4-1.7-.3-2.9.2-.5.2-.6.2-.4-.3.3-.4.2-.4-.2 0-.7.6-1 3-.2 2.4.4-.3.6-.3.7.3.2.5.2.5.3-.2 0-.7.2-.9.6-.7.6.2.6.1.2-.4-.4-.4-.4-.7 0-1 .2-.3.4-.4.4 0 0 .2.5.3 1.2.3 1.3-.1 2.3.3 2.3 1 0 .2-.2.3-.4.1-.5-.3-.5 0 0 1.2.3.8.2 1-.5 1.6-.6.4-.7.6-.2.4.5-.1.7 0 .7.4l.2 2c0 1 0 1.3-.4 1.1-.7-.2-1.4.5-1.4 1.6l-.6-.4c-.3-.4-.8-.5-1-.4-1 .6-1.8.5-2-.2-.3-.5-.2-.5.1-.2.8.8 1.5.2 1.3-1-.2-1 0-1.3.6-1.5.5 0 .8-.4.8-.6 0-.2.3-.3.6-.1.4.1.5 0 .4-.4-.3-.7-2.1-.7-3.2 0-1 .8-1.1 1.4-.3 1.4.4 0 .6.3.6.9 0 .6-.1.7-.3.2 0-.4-.3-.7-.5-.7s-.2.3 0 .7c.2.6.1.6-.5 0-.8-.8-1.7-.5-1 .3.2.3.3.8.2 1.1v.6c1-.2 1.4 0 1.2.7-.2.5-.2.5.2.2.7-.5 2.3-.9 2.3-.5 0 .2.3.4.7.5.5.1.8 0 .8-.1 0-.3.2-.3.4-.2.1.1.2-.3 0-.9l-.1-1 .8 1c.4.5 1 .7 1.2.6.4-.3.4-.5 0-.9-.2-.3-.3-.5 0-.5.5 0 .9 1 .4 1.3-.2.2-.2.4-.1.6.4.8.9 0 .9-1.7v-2.8l-.1-1.5c0-.7-.3-1.2-.6-1.1-.6.1-.6-.6 0-.8.4-.1.3-.4-.2-1-.4-.5-.5-.9-.3-.9.3 0 .5.2.5.5 0 .2.1.3.3.1.8-.4.4-.8-.7-.8-.7 0-1.2-.1-1.2-.4 0-.2.2-.3.4-.2.2 0 .4-.1.4-.3 0-.5-1.6-.6-1.6-.1m6.4 5c0 6-.3 5.5 2.1 6.2.5.1.8 0 .8-.4s-.3-.5-.6-.4c-.5.2-.4 0 .1-.6.6-.6.6-.9.3-1-.3-.1-.4-.4-.3-.6.4-.6.5-1.9.2-1.9-.2 0-.4-.2-.4-.4s.2-.3.4-.2c.2.1.2-.1.1-.5-.1-.5-.3-.7-.5-.6-.2.1-.4 0-.4-.1 0-.5 3.2-2.3 3.8-2.2.3.1.4-.2.2-.7-.1-.5-.3-.7-.4-.4 0 .2-.3.4-.5.4s-.3-.3-.2-.7c.2-.4 0-.9-.1-1-.3-.2-.4-.1-.4 0 .2 1 0 1.7-.6 1.5-.4-.2-.6 0-.5.3v.3c0-.2-.5-.2-.8-.1-.5.2-.6.1-.2-.2.5-.3.4-.4 0-1-.4-.3-.6-.6-.5-.7.1-.1 0-.2-.4-.2-.3 0-.4.2-.3.3 0 .2 0 .4-.2.4s-.4-.2-.5-.5c-.1-.2-.2 2-.2 5m21-4.7c-.4.3-.8.8-.8 1 0 .2-.3.6-.6 1-.4.4-.5.8-.2 1.5.5 1.3.5 1.8 0 1.6-.4 0-.6.3-.7.8-.2 1 1.3 3.4 2 3 .1-.1.2 0 .2.1-.2.7 1 2 1.7 1.8.6-.1.7-1.2.4-2.4l-.8.4c-.3.3-.5.3-.4.1.2-.2-.3-1-1-1.8l-1.3-1.3 2.8.1c2.5.1 2.6 0 2-.4-.5-.4-.6-.6-.3-.6.2 0 .7.2 1 .6.4.3 1.2.5 2.2.5 1.8-.1 2-.4.7-1-.5-.2-.7-.3-.4-.3.2 0 .6-.1.9-.4.4-.3.4-.3.2 0-.1.3 0 .6.1.6 1.3 0 0-2.4-2.4-4.3-.6-.4-1-.8-.8-.8l.8.4c.4.4.5.4.5 0 0-.1-.2-.4-.6-.6-.7-.3-1.8.1-1.5.6.1.2 0 .4-.4.4s-.6-.2-.4-.5c.2-.4.2-.4-.2 0l-.9.5c-.2 0-.2-.3 0-.5.1-.3 0-.3-.5 0-.6.6-.7.6-.5 0 .4-.9.3-.9-.8-.1m18.3-.3c-.5.2-.5 4 0 4 .4 0 .4.1 0 .5-.3.4-.2.6.3.8.3.2.8 0 1-.2.3-.4.3-.4.1.1v.9c.2.1.4.5.4.9s-.2.2-.8-.5l-.9-1.1-.3 1c-.2.5-.1 1 .2 1 .2.1.4.3.4.5 0 .3-.2.3-.4.2-.2-.1-.4 0-.3.4 0 2.9 2.5 3.4 2.5.6 0-1 .2-2.3.3-2.9.1-.7 0-1-.3-.8-.3.2-.3.1 0-.3.4-.4.4-.6-.1-1s-.6-.5-.1-.3c.4.2.6-.2.6-2 0-2-.6-2.5-2.6-1.8m5.7 0c-.4.7-.2 6.9.3 7.2.3.2.3.3 0 .3s-.5.2-.5.4.2.3.4.2c.2-.1.4 0 .4.2s-.2.4-.4.4c-.1 0-.3.5-.3 1.3 0 1 .2 1.2.7 1.2.4 0 .6-.1.4-.4 0-.2.1-.1.5.2.5.4.6.4.6 0 0-.3-.3-.7-.7-1-.6-.6-.6-.6.1-.4.8.2.8 0 .7-2-.1-1.8 0-2.6.7-3.8.5-1 .6-1.3.3-1-.7.5-1.3-1.4-.8-2.6.2-.5.1-.5-.5-.2s-1 .3-1.2 0c-.3-.2-.5-.2-.7 0m4.1.2c0 .3-.2.7-.4.7s-.4.2-.4.5.6.5 2.2.4c1.3 0 2 0 1.8.1-.7.3-.6 1 .4 1.7.6.6.7.8.2.8-.8 0-.9.4-.2 1 .3.4.3.5-.1.5s-.4.1 0 .5c.5.6.5 1.2 0 .9-.4-.2-.4 0 0 .5.2.5.2.9-.1 1.2-.4.4-.4.6 0 .7.3.1.5.4.5.7 0 .2.3.4.7.4.7 0 .8-.2.7-3 0-1.7 0-3 .2-3 .9 0-.1-1.4-1.2-1.7-1.2-.3-1.2-.4-.6-1 .6-.3.6-.6.3-.7-.3-.1-.4-.4-.3-.5.1-.2-.3-.3-.9-.2-.6 0-1.3-.1-1.6-.4-.5-.3-.5-.3-.3.3.1.3 0 .6-.1.6-.2 0-.4-.3-.5-.8-.2-.6-.2-.7-.3-.2m11 0c0 .8 1 1.6 1.6 1.3.3-.1.8 0 1 .3.4.3.5.3.3 0-.2-.5 0-.5.7-.3 1 .2 1.3-.3.4-1.3-.3-.3-.5-.3-.8.2-.4.5-.6.5-1.1 0-.4-.2-.7-.3-.9-.2-.1.1-.5 0-.8-.2-.4-.3-.5-.3-.5.2m5.7.2c.1.2 0 .5-.2.5s-.3.2-.2.5c.3.6-.2.8-1.2.6-.2 0 0 .3.3.6.7.7 1.7.5 1.2-.3-.1-.2 0-.3.3 0 .4.2.4 0 .3-.4-.2-.3 0-.8.2-.9.2-.1.3-.1.2 0-.2.2-.1.7 0 1 .4.6.3.8 0 .8-.7 0-1.6 1.5-1.1 1.8.2.1.4.6.4 1.2 0 .5-.2.9-.4.7-.2 0-.2.2-.1.6 0 .4-.2 1.4-.7 2.2-.7 1.3-.7 1.4-.1.9 1.2-1 2-1.4 1.4-.7-.4.5-.4.7-.1 1 .3.1.3.3 0 .5-.4.2-.6.7-.6 1 0 .5-.2.8-.5.8-.7 0-1.2 1-1 1.7.1.4 0 .5-.1.2-.2-.3-.7-.4-1-.3-.4 0-.7-.1-.7-.3 0-.3.2-.3.6-.2.3.1.5 0 .5-.2s-.5-.3-1.1-.3c-.7 0-1.2-.2-1.2-.3 0-.2-.4-.6-.8-.8-.6-.4-.8-.4-.5 0 .2.3 0 .3-.8.2-.6-.1-1.1 0-1.3.1 0 .2 0 .3.3.3s.6.1.7.4c.1.4 0 .5-.4.2-.3-.1-.2.1.2.6.4.4 1 .7 1.1.6.3-.2.2-.4-.1-.6-.4-.3-.4-.3.1-.3.4 0 .7.2.7.4 0 .3.1.4.3.1l.9-.5c.4 0 .4.1-.2.5-.4.3-.9.5-1 .4-.2-.1-.4 0-.4.2 0 .5.4.5 2.8.4 1 0 1.8-.3 2-.5.2-.3.4-.3.9.1.5.5.6.4.2-.6-.4-.9-.3-1 .1-.6 1 .7 2.2-1 1.7-2.4-.3-.9-.3-1.2.4-1.6.6-.6.6-.6 0-.6-.4 0-.5-.2-.4-.6.1-.3.4-.5.6-.4.2.1.3 0 .3-.2 0-.6-.4-.5-1.3.3-.4.4-.6.5-.5.2v-.6c-.2-.1-.1-.1.2 0 .2 0 .4-.3.4-.8 0-.6.1-.7.6-.3.5.4.6.4.6-.1 0-.3-.2-.7-.4-.9a1 1 0 0 1-.4-.7c0-.2.2-.2.4.2.3.4.4.2.4-.8 0-.7-.1-1.1-.3-1-.2 0-.5-.3-.6-.9-.2-1-.1-1 .4-.3s.5.6.5-.7c0-.8-.1-1.4-.3-1.3-.2.2-.5 0-.6-.2 0-.4-.2-.4-.7 0-.4.3-.7.4-.8.2-.1-.2-.1-.1 0 .2m47.6-.4c-.2.2 0 .5.2.7.6.3 1-.2.4-.7-.2-.2-.5-.3-.6 0m6.5.3c.3.6.2.6-.4.1l-.4-.2c.2.2 0 .7-.2 1-.4.5-.4.5 0 .3.7-.4.6.5-.1 1-.5.4-.4.5.3.5s1-.2.8-.7c-.2-.5 0-.6.7-.5.6.2.7 0 .4-.3-.3-.3 0-.5.9-.5l2-.2c.3 0 .8 0 .8.3.1.3 0 .4-.6.3-.4-.1-1 0-1.5.2-.6.4-.6.4.2.2.6-.1 1.2 0 1.7.4.6.6.8.6.8.2 0-.3.2-.1.5.4.6 1.3-.4 2.7-1.2 1.6-.5-.5-.6-.5-1.1.2-.4.4-.6.6-.5.3.2-.2-.2-.4-.8-.4-.7 0-.8 0-.5.2.4.1.7.5.7.8.1.5 0 .5-.4 0l-.7-.2c0 .2-.2.1-.5-.1-.4-.4-.6-.3-.8.4-.3.7-.3.7-.7.2-.4-.5-.7-.5-1-.3-.6.4-.5.4.1.5.7 0 .7 0 0 .3-.6.2-1 .7-1 1.2 0 .4-.1.8-.3.8-.3 0-.4.2-.4.4s.1.3.3.2c.2-.1.5 0 .6.3.1.4.5.5 1 .4.5 0 .7 0 .6.3-.1.2-.4.2-.6.1-.2-.1-.4 0-.4.2s.4.5.8.6c.4.2.7.4.6.6 0 .1 0 .3.4.3.3 0 .6-.2.6-.4s.2-.2.5.1c.5.4.7.4.9-.2.1-.3.5-.5.7-.4.4.1.5 0 .3-.4 0-.3 0-.6.5-.6.3 0 .6.3.6.5 0 .3.5.6 1.2.6 1 .1 1.2 0 1-.5-.1-.3 0-.6.1-.6.3 0 .4-1.4.4-3.5 0-2.3-.2-3.4-.5-3.2-.2.1-.3-.2-.2-.8.1-.6 0-1-.1-.8-.2 0-.4-.1-.4-.4 0-.4-.1-.6-.3-.5-.2.2-.5 0-.6-.2-.2-.2-.6-.3-.9-.2-.3.1-.5 0-.5-.1 0-.2-.3-.4-.6-.4-.5 0-.6.2-.4.7.2.6.2.6-.3 0-.4-.5-.6-.6-1-.2-.3.3-.4.3-.4 0s-.2-.5-.5-.5c-.2 0-.3.3-.2.6m9.7 0c0 .5.2 1 .6 1.4.5.4.6.4.4 0-.2-.2-.2-.5 0-.5s.5.4.8.8c.3.5.7.7 1 .6.2-.2.3-.1.1.2-.1.2-.4.3-.6.2-.2-.1-.5 0-.6.2-.1.2-.5 0-1-.5-.4-.5-.7-.6-.7-.4 0 .3.1.5.4.5.2 0 .2.2 0 .5-.4.7-.4 4 0 4.5.3.3.3.5 0 .5-.5 0-.5 2 0 2.6 1.2 1.6 1.8.6 1.8-3.2 0-2.9.2-3.9.8-4.5.7-.8.7-1.4.2-1.4l-1.2-.5c-.5-.3-1-.4-1.2-.3-.2.2-.5-.1-.6-.6-.1-.9-.1-.9-.2 0m7.2-.4c-.5 0-1 .4-1.4.6-.4.3-.5.3-.2 0 .1-.3 0-.5-.1-.5-.2 0-.5.3-.6.7-.1.7 0 .8.9.7.7 0 1 .1.9.6-.2.9.6 1.3 1.3.7.3-.2.7-.3.9-.2.2.1.4 0 .6-.4.1-.4 0-.5-.5-.3s-.6.2-.2-.3c.7-.8-.5-1.9-1.6-1.6m37.3 1c-.3.3-.3.5 0 1 .4.3.3.4-.2.2-.7-.3-.8-1.3-.1-1.4.3 0 .3 0 0-.2-.5-.2-.5-.3 0-.6.6-.4 1 .4.3 1m16-.5c-.2.4-.6.7-.9.7-.3 0-.5.5-.5 1-.1 1.3.9 1.3 1.4 0 .2-.4.6-.8 1-.8.3 0 .4.2.3.4-.2.2 0 .2.3 0 .7-.6 3.2-.6 2.9-.1-.2.2-.4.2-.7.2-.3 0 0 0 .4.3.5.2.9.6.9.9 0 .2.2.6.4.7.3.2.4.1.2-.1-.2-.3 0-.5.1-.5.6 0 .6.7 0 1-.3.2-.7 0-1-.4-.4-.6-.5-.6-.5-.2 0 .4.2.8.4 1 .3.3.3.5 0 .7l-.4.7c0 .2.2.3.4.1.2-.1.2.1 0 .6-.5.6-.5.9-.1 1.1.7.5-.6 1.4-2.3 1.6-.7 0-1.6.3-2 .5-.4.2-.6.1-.6-.3 0-.3.2-.4.4-.3.2.2.3 0 .2-.3-.2-.6-1.5-.7-2.2-.2-.8.6 1 2.1 2.5 2.1.7 0 1.3-.1 1.1-.3-.3-.6.1-.4.8.2.5.5.6.5.8-.2.3-1 1.2-1 1.5 0 .2.8 2.2 1.2 2.2.4l.3-1c.2-.4.1-.6-.2-.4-.2.1-.5 0-.7-.1 0-.3 0-.4.3-.4s.6-.4.6-.9-.1-.7-.5-.5c-.4.1-.5 0-.3-.3s.3-.8.2-1.3c0-.6 0-.7.3-.2.4.6.5.6.3 0 0-.3-.4-.6-.8-.6-.3 0-.7-.1-1-.3 0-.2 0-.2.4-.2.7.2 1-1.7.3-3.2-.4-.9-.7-1-1.6-1-1 .1-1.5-.2-.8-.6h-.3l-1.3.3c-.3 0-.8.2-1 .4-.4.2-.4.1-.3-.1.2-.3.1-.6 0-.7-.2 0-.6.2-.8.6m12.2-.2c-.1 1.2-1.8 1.6-1.8.4 0-.3.1-.3.4 0 .1.3.4.4.8.1.3-.2.5-.3.3-.3s-.2-.2 0-.4c.3-.6.4-.5.3.2m8-.4-.2.6-.1.7c0 .2-.4.3-.7.2-.5-.2-.6-.1-.4.2.2.3 0 .4-.4.4-.5 0-.6.1-.1.6.4.6.4.7 0 1-.4.2-.5.4-.3.4l-.2 1c-.3.9-.2 1 .3.8.5-.2.5-.1.1.6-.5 1-.1 2.4.4 1.5.3-.4.2-.7 0-.9-.4-.2-.4-.3-.1-.3.8 0 .9.5.3 1.7-.5 1.4-.1 2.3.9 2 .3-.2.5 0 .5.5 0 .4.1.5.2.3s1-.3 1.8-.3c.8.1 1.4.4 1.3.5-.1.2 0 .4.4.4s.7-.3.9-.6c.2-.5.3-.5.5-.1.3.4.4.3.4-.2 0-.4.2-.7.6-.6.5.1.7-.2.7-1.1 0-1 0-1.2-.4-.9-.3.3-.4.6-.3.9.2.2 0 .3-.2 0-.2 0-.3-.4-.2-.6.4-.5-.5-.4-1.2.3-.3.3-.7.6-.9.6-.1 0-.6 0-1 .2-.4.1-1 0-1.2-.3-.3-.2-.7-.3-.9-.2-.2.1-.4-.1-.4-.6 0-.4.1-.6.3-.5.2.1.3 0 .1-.4 0-.3-.3-.5-.5-.4-.2.1-.2-.2 0-.6 0-.5-.1-1-.4-1.2-.5-.3-.5-.3 0-.3.4 0 .4-.2-.1-1-.7-1-.9-2-.3-1.6.3.2.3.4.2.6 0 .2 0 .4.2.6.2.1.5 0 .6-.5l.6-1.4c.5-.9.5-1.1-.1-.8-.4.2-.4.2 0-.3.3-.3.4-.7.2-.9-.3-.3-.9-.3-1 0m12.2.6c0 .6-.2.8-.6.6-.3-.1-.6 0-.8.2-.2.3 0 .3.2.2.2-.2.4-.1.4.1 0 .3-.4.6-.8.8-.5.2-.9.4-.8.5l-.1.8c-.2.4-.1 1.1.1 1.6.3.7.3 1 0 1.2-.4.1-.4.3 0 .5.3.2.5.6.4.8-.2.1 0 .7.3 1.3.3.5.5.8.5.6 0-.2.3-.1.7.2.4.3.5.3.4 0-.2-.2 0-.4.1-.5.3-.1.5-.6.6-1.2 0-.9 0-1-.4-.7-.4.3-.6.3-.8 0-.2-.3-.1-.4.1-.3.6.4 1-.9.9-2.5-.1-2.5 0-3.4.4-2.5.3.8.4.7.5-.2.1-.6 1-1 1-.4 0 .3.4.4 1 .3.6-.2 1-.1 1 .1s.3.4.6.4c.4 0 .5.2.3.7-.2.4 0 .5.2.3.3-.2.4.3.4 1.7 0 1-.2 1.8-.4 1.7-.2 0-.3.2-.3.5 0 .4.2.5.4.4.3-.2.4-.2.2.1-.4.7-2.6 1.7-2.6 1.1 0-.2-.1-.2-.3.1-.2.4-.3.8-.2 1 .2.2 0 .2-.2 0-.3-.1-.4-.5-.2-.9v-.3c-.2.1-.6 0-.8-.4-.4-.6-.5-.6-.5 0 0 .4.2.7.3.7.2 0 .3.3.2.7-.2 1 1.4 1.1 2.1.2.4-.4.6-.5 1.1 0 .5.3.6.3.4-.2-.1-.4.1-.6.8-.6 1 0 1 0 .4.4-.7.5-1 1.6-.4 1.2.2 0 .3.2.2.6-.1.4-.4.7-.7.6l.3.3c1 .8.8 1.2-.2.6-.5-.3-.7-.3-.5 0 .1.3 0 .5-.2.5-.4 0-.4.1 0 .6.4.4.4.5-.1.3s-.6 0-.6.5c0 .4.3.8.6.8s.4-.1.3-.2c-.4-.4.8-1.2 1.2-.8.3.2.6.2.7 0 .2-.3 0-.5-.2-.5-.4 0-.4 0 0-.3.3-.2.5-.5.4-.7-.2-.8.5-1.8.9-1.2.2.4.3.3.3-.2 0-.4-.2-.7-.4-.7-.3 0-.3-.4-.2-1 .4-1.6.5-5.3.1-5.5-.1 0-.1-.5 0-.8.6-1.1.7-3.8.2-3.5-.3.2-.5.1-.5-.1 0-.3-.5-.2-1.3.3-1.3.7-3.2.8-2.7 0 0-.1.5-.2.8 0 .6.1.6 0 .2-.3-.4-.5-.6-.4-1.2 0-1 1-2.6 1.1-2.5.3 0-.4 0-.7-.3-.7-.2 0-.4.4-.4.8m18.6-.4c-.2.2-.4.3-.6.2-.2-.1-.2.2-.1.6.1.6 0 .8-.2.6-.6-.4-.6 0 0 1 .2.6.2.6-.4.4-.6-.2-.6-.1-.2.3.4.5.3.9-.3 2-.6.9-.7 1.1-.2.8.3-.3 1-.4 1.3-.3.5.2 1 0 1-.2.3-.3.2-.4 0-.2-.3.2-.4-.1-.2-.8.2-.6.5-1 .7-1 .2 0 .4-.8.4-1.9 0-1.8-.6-2.5-1.2-1.5m-207.4.9c-.5.2-.9.2-1.2-.2-.3-.3-.3-.4 0-.2s.6.1.6-.1.2-.3.6-.2c.6.3.6.3 0 .7m12 .2c0 .3.3.6.5.6.3 0 .5.2.5.3v.7c0 .2-.1.4-.4.4-.2 0-.3-.2-.2-.3.1-.2 0-.6-.3-.9-.4-.2-.6-.8-.6-1.3 0-.4.1-.6.3-.5.1.2.3.6.3 1m7.8-.3c0 .5 0 1.1-.3 1.4-.3.4-.3.5.2.5.7 0 .8-2.2.2-2.6-.2 0-.2.2-.1.7m50.7-.2c-.2.5-.1.6.2.4.4-.3.5-.2.3 0-.2.3-.1.5.1.5s.3.3.2.7c-.2.5-.4.4-.8-.3-.6-1.1-.7-2-.2-2 .3 0 .3.4.2.7m5.8-.1c.3 1 1.8 1.6 1.8.7 0-.5-.4-.8-1-1-.5 0-.9 0-.8.3m5-.2-.1.8c0 .4-.5.6-1.3.6-1-.1-1.1-.1-.2.2 1.9.6 2.2.5 2.2-.8 0-1-.5-1.7-.6-.8m30.9 0c0 .2-.5.3-1 .2-1-.1-1 0-.6.4.3.5.4.6 0 .6-.2 0-.3.2-.2.4 0 .2-.1.3-.5.3-.5 0-.8.4-1.1 1.7l-.5 1.7-.1-1.3c-.1-.9-.2-.5-.2 1s.1 2.4.3 2.2c.2 0 .4.1.3.5-.1 1.6 0 1.8.9.8.6-.8.9-1 1.3-.6s.6.4.6 0c0-.2-.4-.6-.9-.8-.7-.3-.7-.4-.2-.4.8 0 .9-.3.1-1-.3-.3-.6-.4-.8-.2-.2.1-.1 0 .2-.4.2-.4.4-1.1.3-1.6 0-.6 0-.9.4-.8.3 0 .5-.2.5-.5s.2-.6.4-.6.3.2.1.5c-.1.3 0 .3.2.1.4-.2.4-.4 0-.9s-.4-.6.2-.3c.5.1.6 0 .6-.6l-.1-.7c-.2 0-.2.1-.2.3m29.4 0c.1 0 0 .4-.2.7-.6.8.4 1.1 1.2.4.4-.4.8-.5 1-.4l-.2-.3c-.2-.4-.8-.7-1.3-.7-.4 0-.7 0-.5.2m4.6 2.1c0 1.6.1 2.4.4 2.4.4 0 .4 0 .1.3-.7.5-.7 4.9 0 4.6.3-.1.6 0 .6.2s-.2.3-.5.3-.3.1 0 .5c.5.4 1.4 0 1.1-.5-.1-.2.1-.4.5-.5.7-.3.8-.6.7-3.4-.1-2.5 0-3.1.4-3 .3.2.5 0 .4-.2 0-.3.2-.4.5-.4s.4 0 .2-.3c-.1-.2-.6-.4-1-.4-.5 0-.7-.2-.7-.8 0-.6-.2-.8-.9-.7-.6.1-.9.4-.8.8 0 .4-.1.6-.3.5-.3-.1-.3-.5-.2-.8.1-.3 0-.6-.2-.7-.1-.1-.3.8-.3 2.1m4.6-1.7v.8c0 .2.2.4.5.4.4.2.4.1 0-.2-.4-.3-.3-.4.5-.6 1.2-.3 1.1-.6-.1-.8-.6-.1-.9 0-.9.4m27.6.1.1.9s.4.2.9.2.7-.2.5-.6c0-.2 0-.4.2-.2.2 0 .4.4.4.7 0 .3.2.7.5.9.3.1.3 0 .1-.3-.2-.3-.2-.4.2-.2.2.2.3.6.2.9-.1.3 0 .4.2.3.2-.1.4 0 .6.2 0 .2 0 .4-.2.6-.8.5-.5 1.8.4 1.3.6-.3.7-.3.5.2-.1.4 0 .6.4.6s.5-.2.4-.6c-.1-.3 0-.5.3-.5s.1-.3-.4-.6c-.5-.4-.7-.9-.6-1.3.2-.6.2-.6-.2-.1-.3.4-.4.4-.4.1 0-.2.1-.6.4-.7.2-.1.4-.5.4-.8 0-.3-.2-.5-.4-.4-.3.2-.4.1-.4-.1 0-.5-1.3-1-3-1-1-.1-1.2 0-1.1.5m20.9-.3c0 .2.1.4.3.4.3 0 .3.3 0 1-.3.9-.2 1 .6 1 .2 0 .2.1.1.4-.1.4 0 .7.4.8.4.2.5.4.1 1-.3.7-.3.8 0 .7.4 0 .6.2.6.6 0 1 1.3 2 1.6 1.3.2-.4 0-.8-.3-1-.4-.3-.4-.4.2-.4.7 0 .7 0 .1-.6-.7-.7-.8-1.1-.2-.7.2 0 .4 0 .4-.2s-.2-.4-.5-.4c-.2 0-.3-.3-.2-.6.2-.3 0-.6-.2-.5-.3 0-.5-.5-.5-1.3l-.2-1.6c0-.4-2.3-.3-2.3.1m-262.2.2c0 .2 0 .7-.2 1.1-.3 1.6-.2 3.5.3 3.8.4.2.4.3-.1.3-.7 0-1.1 3.5-.4 3.6 2.5.3 2.4.3 2.3-1.5 0-1-.2-1.9-.3-2.1-.2-.2-.1-1 0-1.8.4-1.5-.1-2.7-.8-2.2-.2 0-.2 0-.1-.4 0-.3 0-.7-.2-.8-.3-.2-.5-.1-.5 0m50.3.5c-.2.7 0 .7.7.4.7-.2 1-.2 1.2 0 .2.4.4.4.7 0 .5-.5 1.2-.5.9 0-.3.4.3.6 1 .5.2 0 .3 0 .1.3-.2.4.3.7 1.7 1l.8.2-.1.4c-.2.3-.4.3-.7 0-.6-.5-1.2-.5-.9 0 .2.2 0 .4-.3.4-.4 0-.7.1-.7.4 0 .2-.3.3-.6.3-.6 0-.6 0-.1-.3.5-.4.5-.4-.1-.4-.4 0-.8.1-1 .4-.5 1-1.6 1.2-1.5.3.2-.7 0-.7-.4-.3-.7.6-.8 0-.1-1.3.3-.6.3-.7 0-.5-.3.1-.5 0-.5-.2s-.1-.3-.4-.2c-.3.2-.3-1 0-2 .2-.5.4 0 .3.6m37.2-.1c-.2.3-.3.6-.1.5 1-.2 1.4 0 1.2.8-.2.8.7 1.1 1.1.4.4-.7-.5-2-1.2-1.7-.5.2-.6.1-.4-.2.4-.6 0-.5-.6.2m51 3.5c0 2.4.3 4.6.4 4.9.2.3.2.4-.1.2-.3-.2-.5 0-.5.5 0 1 .5 1.3 1.2.8.4-.2.8-.2 1.2.1.5.4.5.4 0-.1-.2-.4-.3-.8-.1-1 .5-.4.5-3 0-2.6-.3.1-.3 0 0-.4.5-.6.5-.7 0-.7-.4 0-.4 0 0-.3.3-.2.5-.9.6-1.6 0-.6.1-1.1.3-1 .1 0 .2-.1.2-.4 0-.3-.2-.5-.4-.4-.2 0-1-.4-1.7-1.1l-1.3-1.2.2 4.3m-129.6-2c-.1.3 0 .7.1.8.5.3 1-.6.5-1-.2-.3-.4-.2-.6.2m78 .3c-.4.4-.5.7-.2.5.3-.1.5 0 .5.3 0 .4.2.8.4.9.3.2.4.1.2-.2-.3-.4-.2-.4 0-.3.3.2.6.1.7-.1.2-.2 0-.4-.3-.4-.4 0-.6-.2-.6-.4s.1-.4.3-.4c.3 0 .4-.2.4-.4 0-.6-.5-.4-1.3.5m28.3-.5c-.3.1-.6.4-.7.7 0 .3 0 .5.2.3.5-.3 1 1.5.5 2-.3.2-.4 0-.4-.6 0-.4-.2-.8-.4-.8s-.3.1-.2.3c.6 1-1 1.8-1.7.9l-.8-1-.9.9c-.7.7-.8.8-.2.8.4 0 .8.3 1 .6 0 .3.4.6.7.6.3 0 .5.2.3.4 0 .2-.4.3-.6.1-.3-.1-.3 0-.2.2.2.2 0 .5-.1.7-.3.1-.4.5-.3.8.1.2 0 .6-.4.7-.8.3-1 .3-.7-.2.2-.2.1-.3 0-.3h-.7c-.7-.3-1.3-.3-1.4 0-.1.1-.8.4-1.5.5a4 4 0 0 0-1.6.5c-.1.1 0 .1.4 0s1 0 1.2.3c.5.5.7.5.8.1.1-.3.2-.2.2.2 0 .9 1.6 1 1.9.1.2-.4.4-.5 1-.1.5.2.7.2.5 0-.1-.2.3-.7 1-1 .6-.3 1.1-.4 1.1-.3 0 .2.4.3.8.2.5 0 .7 0 .6.4-.2.3.1.6.6.7.4.1.8 0 .8-.1 0-.4 1-.3 2 .2.2.1 0-.1-.4-.6-.6-.5-1.3-.7-1.8-.6h-.3c.7-.3.6-1.2-.2-1.5-.6-.2-.6-.3 0-1 .6-.5.6-.7.1-.7-.3 0-.5.2-.3.5.1.2 0 .2-.3-.1-.4-.4-.4-.6 0-1 .2-.2.4-.3.4 0 0 .1.3 0 .6-.5.6-.7.6-.7.3 0-.2.7-.1.7.2.2.2-.3.3-.7 0-1-.4-.6-.2-1.7.3-1.7.3 0 .5-.2.3-.4 0-.2-.3-.3-.5-.2-.2.1-.4 0-.5-.1 0-.2-.4-.3-.7-.1m64.4.2c0 .9-.6 1-1.3.3-.5-.7-.5-.7.4-.8.6 0 1 .1 1 .5m13.6-.2c-.3.2-.7.3-.8.2-.1-.1-.5 0-.7.4-.3.3-.7.5-.9.3-.2 0-.2.2 0 .6.7 1 2.7 1 2.5 0 0-.5 0-.7.3-.5.2.1.4.7.4 1.3 0 .7.1.9.3.5.3-.3.5-.3 1 .3 1 1 1.6.7 1-.5-.4-.6-.2-.6.8.4.6.6 1 1.2.8 1.3-.3 0-.6-.1-.8-.4-.3-.4-.4-.4-.6.1-.2.7-.3.7-.9 0l-.3-.3c.6.8.2 2.1-.7 2.7-.7.4-.9.9-.7 1.3.2.6 0 .5-.5-.1-.8-.9-2-1-2.6 0-.6 1-.3 1 2.1.9 3.5-.4 3.5-.4 3.3-1-.1-.2 0-.3.4-.2.3.1.5 0 .5-.2s-.2-.5-.6-.6c-.3-.1-.5-.5-.5-.9 0-.7 0-.7.2 0 .2.8.7.9 1.1.2.2-.2 0-.6-.2-.7-.4-.3-.4-.4-.1-.4.3 0 .6.2.7.4.5.7 1 .4 1-.6 0-.5-.2-1-.4-1s-.4-.2-.4-.6c0-.3-.2-.5-.4-.3-.4.2-.4 0-.3-.5.2-.6 0-.8-.4-.8s-.6-.1-.6-.4c.1-.5-.3-.7-1.4-.5-.3 0-.6-.1-.8-.3-.1-.3-.4-.3-.8 0m-40.6.2c0 .6 1.4 1.7 1.7 1.4.1-.1 0-.6-.4-1-.7-.7-1.3-.9-1.3-.4m-44.2.5c0 .3.2.3.4.2.2 0 .7 0 1 .4.7.5.7.5.1.3-.4-.1-.7 0-.6.1.1.9-.1 1-1 .3-.6-.3-.9-.8-.8-1.1.3-.7 1-.8 1-.2m57.9.4c-.2.6-.3.7-.6.3-.1-.3-.2.5-.2 1.8 0 1.2.2 2.2.4 2.2.1 0 .3.2.3.4s-.2.3-.3.2c-.2 0-.4.6-.4 1.5s0 1.4.2 1.1c0-.3.5-.4 1-.2 1 .2 1 .2 1-2.7l.2-3.8c.2-1.6-1.3-2.2-1.6-.8m-38.4.6c-.4.5-.3.6 1 .6.7 0 1.3-.2 1.3-.4s.2-.4.4-.4c.3 0 .4.1.2.3 0 .2.2.3.6.2.6-.2.9 0 1.1.7.2.5.4.8.4.6 0-.1.4.1 1 .6.5.5.6 1 .3 1-.3.1-.3.4 0 .9.3.6.2.7-.3.5-.6-.2-.7-.6-.6-1.7.1-.7-.3-.3-.9.8-.2.5-.6.8-.8.8-.2 0-.5.1-.6.4-.3.5-.5.4-.8 0-.3-.5-.5-.5-1.4.5-.5.6-1 1-1.2.9-.1-.2.2-.6.7-1 .9-.8.9-.9.2-.8-1.4.1-1.8 0-1.8-.6 0-.3.2-.6.5-.6s.3-.1-.1-.4c-.4-.2-.4-.4-.1-.4.3 0 .4-.5.3-1.4-.1-.8 0-1.3.2-1.3s.3-.2.1-.5c-.1-.3 0-.3.2-.1.4.2.4.4 0 .8m-85.5 1.1c0 .3-.2.1-.6-.3-.3-.4-.5-1-.5-1.2 0-.2.2 0 .5.4.4.4.6 1 .6 1.1m-1.9-.8h.4l-.8.6c-.6.4-.7.3-.5-.4.1-.5.3-.7.4-.4 0 .3.3.4.5.2m22 1.8c-.3 0-.4.3-.3.6.2.4 0 .5-.4.4-.6-.3-.6-.4 0-1 .3-.4.4-.8.2-1.2-.2-.3-.4-.7-.4-1 0-.1.3.2.7.9.5.8.6 1.2.2 1.3m42.8-2 .8 1c.4.4.8.6.8.3a1 1 0 0 0-.4-.6c-.2-.2-.3-.4-.2-.6 0-.2 0-.3-.4-.3-.3 0-.6 0-.6.2m-80.3 1.1c-.2.5-.3.5-.4.2-.1-.2-.4-.4-.6-.2-.2 0-.3 0-.3-.2 0-.4.8-.8 1.2-.6.2.1.2.5 0 .8m215.4-.7c.4.2 1 .3 1.4.2.4-.2.4-.1 0 .2-.3.2-1 .2-1.5.1-.7-.1-1 0-.7.3.1.3.5.4.8.3.3-.1.6 0 .7.3.2.3.2.3.2 0 0-.4.6-.6 1.4-.6 1 0 1.4-.1 1.4-.5 0-.5-.5-.6-2.2-.6-1.6 0-2 .1-1.5.3m11.1 1.4c0 1-.4.5-.6-.8-.1-.8 0-1 .2-.5.2.3.4.9.4 1.3m-164.1-1c-1 .2-1.3 1.2-.4 1.2.6 0 .6 0 0 .4-.4.3-.7.6-.7.9 0 .2.2.2.6 0 .3-.4.8-.5 1-.4.3.2.3.2-.2.3-.5 0-.6.3-.5.9.1 1.2.6 1.9 1 1.6.3-.1.3-.4.2-.6-.1-.2-.3-.3-.5-.2-.2.1-.3-.1-.3-.6 0-.4.2-.7.3-.7.2 0 .3.3.3.7 0 .6.1.6.5 0 .3-.4.4-.4.2.1-.1.3 0 .9.1 1.2.3.4.4.4.4 0s.2-.4.6.1c.8.8 1.5.8 2.6-.2.5-.4.7-.7.4-.6-.2.2-.5 0-.7-.1-.1-.3-.8-.4-1.5-.2-1 .2-1.3 0-1.7-.7-.5-.7-.5-.8 0-.6.5.2.6 0 .4-.5 0-.4-.4-.8-.7-.8-.3 0-.4-.3-.3-.8.2-.7.1-.8-1.1-.5m-79.7.5.9.9c.2.4.3.3.3-.4 0-.6-.2-.8-.8-.8-.7 0-.8 0-.4.3m96.2 0c0 .3.1.4.3.4.4 0 .5 1.6 0 2.4-.4.8.9 1.4 2.5 1.2 1.4-.1 1.4-.7-.1-1-1.1-.3-1.2-.3-.5-.8.4-.3.6-.7.4-.8-.2-.2-.3-.1-.3.1 0 .3-.3.5-.7.5-.4 0-.5-.1-.2-.3.3 0 .4-.3.3-.5-.1-.2 0-.4.2-.4s.3-.2.2-.6c-.3-.6-2.1-.8-2.1-.2m49.7.2c.1.3 0 .7-.2.8-.2.2-.2.4-.1.6.1.2 0 .4-.2.4-.4 0-.3.3 0 .9.7.9.6.9-.5.8-.7 0-1 .1-1 .5 0 .3-.4.5-.8.5-.6 0-.6 0 0-.4.4-.3.3-.4-.6-.2-.7.2-1 .1-1-.2.1-.3 0-.5-.3-.4-.5 0-.5-1.5 0-2.2.2-.3 1-.5 1.8-.5 1 0 1.6-.2 1.7-.6.3-.7 1-.7 1.2 0m66 0c.1.3 0 .7-.2.8-.3 0-.3.2 0 .2.6 0 .6 0 0 .4-.3.3-.3.4 0 .3.3 0 .5-.3.5-.5-.1-.5 1.4-1 2.2-.7.6.2.6.2.2-.4-.7-.8-3-1-2.7 0m-199.9.8c-.2.6-.3.6-.6.1-.2-.3-.2-.7.1-.8.6-.4.8-.1.5.7m-13 0c.8.7.8 1.1.3 1.5-.2.1-.3 0-.2-.3.1-.4 0-.7-.2-.9-.2-.1-.4-.1-.4 0 .3 1.3 0 2.1-.7 2-.4-.2-.2 0 .4.4.7.5 1 1 .9 1.3-.2.4 0 .3.5-.2.4-.4.6-.9.4-1-.5-.3 0-1.9.5-1.9.7 0-.5-1.4-1.3-1.5-.6 0-.6 0-.1.6m262-.2c0 .3.5.6.9.7.6 0 .7 0 .2-.5-.6-.8-1.3-.9-1.1-.2m-64.9 2c.6.2.7.5.4.7-.5.6-2.1-.3-1.8-1l.2-1.3c0-.4.2-.3.3.2 0 .5.5 1 1 1.3m13.3-1.7c.2.3 0 .8-.4 1.1-.5.4-.6.6-.1.5.3 0 .7-.3.8-.5.2-.2.3-.2.3.1 0 .3.2.4.4.3.2-.1.4-.5.4-.7 0-.2-.1-.3-.2-.2-.2.2-.6 0-.9-.4-.3-.4-.4-.4-.3-.2m-28.3.5c.3.2.4.5.3.7-.2.1-.6 0-1-.2-.8-.5-1.2-.3-1.2.5 0 .3.2.4.6.3.3-.1.5 0 .5.2s-.2.5-.5.6c-.2.1-.1.2.3.2s.6.2.4.4c-.1.3 0 .4.2.3.2 0 .7.3 1 .7l.4.4c0-.3.2-1 .6-1.5.5-.6.7-1 .5-1-.7.1-1.4 0-1.2-.3.4-.3-.4-1.7-1-1.7-.3 0-.3.2.1.4m-177.5.3c-.3.4-.3 1.7.2 1.7.2 0 .4-.2.6-.4 0-.2 0-.4-.2-.4s-.4-.2-.4-.5c0-.2.4 0 .9.4 1 1 2 .6 1.6-.4-.3-.8-1-1-1-.3 0 .2.2.4.5.4.2 0 .3 0 .2.2-.1.1-.6 0-1.1-.4-.6-.3-1.1-.5-1.3-.3m256.2 0c0 .3 0 .5.2.7.2.1.3.4.2.7-.1.3 0 .8.5 1 .6.6.6.6.1-.3-.4-.8-.4-1 .1-.7.5.1.6 0 .4-.3 0-.4 0-.6.3-.6.7 0 .2-.4-.7-.6-.5 0-1 0-1 .2m-17 1.2c.2.5 0 .6-.3.5-.7-.3-1-1.2-.3-1.2.2 0 .6.3.7.7m14.9-.4c-.2.3 0 .6.2.8.4.2.4.3 0 .3-.2 0-.5-.2-.7-.6-.3-.5-.5-.5-.7-.1-.2.3-.1.6.1.7.3 0 .4.3.2.5-.1.3 0 .3.3.1.4-.2.4-.1.3.3-.2.4 0 .8.1 1 .3.1.3.3 0 .5-.4.2-.4.5 0 1.2.3.8.3.8-.1.3-.4-.4-.9-.5-1.7-.3-.6.1-1 .3-.7.3.4 0 .4.3.1 1l-.4 1.2 2.8-.1c1-.1 2-2 2.2-3.9.1-2-.2-2.8-.7-2-.3.4-.3.3-.3-.4.2-1-.6-1.6-1-.8m-211.2.5c-.2.2-.3.7-.4 1 0 .6 0 .6-.3 0-.2-.3-.4-.4-.4-.2s.3.7.7 1.2c.6.7.6.7-.1.5-.6-.3-.7-.2-.4.1.7.7 1.2.2 1.1-1.1 0-.7 0-1.3.2-1.4.2-.1.3.3.2 1-.2 1.2.4 1.9.8.9.1-.3.3-.5.5-.4.2.1.4 0 .4-.3l.1-1c.2-.7-1.7-.9-2.4-.3m112.4.3c0 .7-.3 1-.7.5-.2-.1 0-.5.2-.8.6-.7.6-.7.5.3m65.8-.1c0 .2-.4.4-.8.4-.8 0-1.4 1.5-.7 1.9.2.1.3 0 .1-.2-.1-.3.2-.4 1.3-.2 1 0 1.7 0 1.8-.3.2-.3.4-.3.7 0 .2.5.3.4.3-.3 0-.5-.2-.8-.4-.7-.2.2-.4 0-.6-.1a.5.5 0 0 0-.6-.2c-.3.1-.6 0-.8-.3-.2-.4-.3-.4-.3 0m-220.4.6c.3.4.4.8.3 1-.1 0-.5-.1-.7-.5-.5-.6-.5-.6-.5.2 0 1.1 2.3 1.1 2.7 0 .3-.7.3-.7-1.2-1-1-.3-1-.3-.6.3m194.5.4c-.1.6 0 1.1.1 1.2.2.2.4-.3.4-1 0-1.4-.3-1.5-.5-.2m-207 .4-1 .6h1.2c.5-.1 1-.4 1-.7 0-.6 0-.6-1.1.1m211.1 0c-.3.9-.3.9.3.9.3 0 .5-.3.6-.7 0-1-.5-1-.9-.1m32.5.2c0 .7-.1.7-.5.1-.2-.3-.6-.4-.8-.3-.1.2-.2.1 0-.1.4-.7 1.4-.5 1.3.3m-147 0c-.1.2 0 .6.2.8.3.3.4.2.4-.4 0-1-.2-1.1-.6-.4m135.6.8c-.2.1.3.3 1 .3.6 0 1.1 0 1.1-.2 0-.3-2-.5-2.1-.1m18.3 1.7c.1.3 0 .6-.3.6-.8 0 .8.7 2.3 1 1 .1 1.4 0 1.2-.3-.2-.2 0-.6.2-.8.4-.3.4-.4 0-.2-.4 0-1 0-1.2-.3-.3-.3-.4-.2-.4.4 0 .7-.2.8-.8.6-.7-.1-.7-.2 0-.7.3-.3.4-.5.1-.3-.3 0-.5 0-.5-.2s-.2-.4-.4-.4-.3.2-.2.6m4.3.5c.2.3 0 .4-.2.4s-.3.3-.2.6c.1.4-.2.6-1 .7-1.3.2-1.3.2 0 .2.8 0 1.4-.3 1.4-.6l.3-.7c.5-.4.4-1 0-1-.3 0-.4.2-.3.4"/></g></svg>